<svg width="18" height="9" viewBox="0 0 18 9" fill="none" xmlns="http://www.w3.org/2000/svg">
<path opacity="0.8" d="M9.02029 0.501855L9.00262 0.503074L8.98491 0.503039C8.80219 0.502682 8.62504 0.566326 8.48414 0.683062C8.484 0.683177 8.48386 0.683292 8.48372 0.683408L0.783981 7.10777L0.783489 7.10818C0.62333 7.24146 0.522473 7.43312 0.503324 7.64106C0.484176 7.84901 0.548333 8.05597 0.681518 8.21641C0.814684 8.37682 1.00591 8.47756 1.21305 8.49668C1.42 8.51578 1.62614 8.45189 1.78622 8.31887C1.78637 8.31875 1.78651 8.31863 1.78666 8.3185L8.665 2.56236L8.98011 2.29865L9.29988 2.5567L16.1793 8.10811L16.1807 8.10927C16.2609 8.17444 16.353 8.22308 16.452 8.25243C16.5509 8.28177 16.6546 8.29125 16.7572 8.28032C16.8598 8.2694 16.9592 8.23828 17.0498 8.18874C17.1403 8.1392 17.2203 8.0722 17.285 7.99156L17.2929 7.98164L17.3014 7.97214C17.3732 7.89144 17.4276 7.79673 17.4611 7.69392C17.4947 7.59112 17.5067 7.48247 17.4964 7.37478C17.4861 7.26708 17.4537 7.16272 17.4012 7.06821C17.3488 6.9737 17.2774 6.8911 17.1917 6.82556L17.1916 6.82569L17.1815 6.81758L9.49862 0.625233C9.35672 0.533569 9.18895 0.490221 9.02029 0.501855Z" fill="white" stroke="white"/>
</svg>
