<svg width="52" height="52" viewBox="0 0 52 52" fill="none" xmlns="http://www.w3.org/2000/svg">
<path d="M51.6078 1.09089C51.5929 0.914161 51.5165 0.743624 51.3837 0.612599L51.3764 0.605387C51.2463 0.477104 51.0789 0.403364 50.9058 0.388636C46.3858 -0.542356 41.4846 0.206622 36.7246 2.55696C33.1209 4.33637 30.8843 6.37976 30.7908 6.46589C30.7872 6.46924 30.7841 6.473 30.7806 6.47635C30.7767 6.48001 30.7726 6.48316 30.7689 6.48691L18.3083 18.9257L15.442 16.0596C15.4419 16.0595 15.4418 16.0595 15.4418 16.0594C15.4418 16.0593 15.4417 16.0592 15.4416 16.0592C13.9416 14.5618 11.5033 14.5601 10.0058 16.0553L7.66663 18.3939C7.36913 18.6914 7.36903 19.1736 7.66653 19.4712C7.81533 19.62 8.01024 19.6944 8.20526 19.6944C8.40017 19.6944 8.59509 19.62 8.74389 19.4713L11.0827 17.1331C11.9864 16.2307 13.459 16.2327 14.3653 17.1375L17.2302 20.0021L10.5301 26.6906L8.90579 25.0662C8.66527 24.8257 8.29454 24.7738 7.99724 24.939L3.19409 27.6067L1.90151 26.314L6.44586 21.7699C6.74336 21.4724 6.74336 20.9901 6.44586 20.6926C6.14846 20.3951 5.6661 20.3951 5.36861 20.6926L0.285624 25.7753C-0.0118748 26.0728 -0.0118748 26.5551 0.285624 26.8526L2.52301 29.0903C2.76028 29.3275 3.13792 29.3807 3.43156 29.2175L8.23471 26.5498L11.4406 29.7553C10.3461 30.2854 9.89437 31.6431 10.4251 32.7329C10.6946 33.2863 11.2271 33.7102 11.6563 34.1393C9.66238 33.9232 7.59035 34.5674 6.05268 36.0784C5.75498 36.3708 5.75264 36.865 6.04791 37.1604L14.7419 45.8546C15.0336 46.1463 15.5202 46.1487 15.8146 45.8592C17.1119 44.5841 17.834 42.8866 17.848 41.0797C17.8501 40.816 17.8353 40.5524 17.8073 40.2903C18.2782 40.7612 18.7323 41.3304 19.3697 41.5741C20.4309 41.9801 21.6769 41.5146 22.1796 40.4918L25.3854 43.7L22.7929 48.5992C22.6365 48.8947 22.6911 49.2576 22.9276 49.4941L25.172 51.7385C25.3207 51.8873 25.5157 51.9616 25.7106 51.9616C25.9055 51.9616 26.1005 51.8873 26.2492 51.7386L35.9904 41.998C37.4697 40.5216 37.47 38.0558 35.9909 36.5789L33.0343 33.622L45.4813 21.1961C45.4851 21.1924 45.4882 21.1883 45.4919 21.1844C45.4951 21.1811 45.4987 21.1781 45.5019 21.1747C45.5884 21.0814 47.6397 18.8482 49.4265 15.2502C51.7869 10.4976 52.5404 5.60396 51.6078 1.09089ZM29.1021 25.1839C27.6622 24.5245 26.7123 23.342 26.3878 21.7251C26.0687 20.1354 26.5811 18.4575 27.7277 17.3135C28.6819 16.361 29.9351 15.8846 31.1885 15.8846C32.4418 15.8846 33.6953 16.361 34.6495 17.3137C35.574 18.236 36.0831 19.4623 36.083 20.7666C36.083 22.0707 35.5739 23.2968 34.6495 24.219C33.2071 25.6614 30.8755 25.996 29.1021 25.1839ZM26.6511 25.2975C26.9093 25.5553 27.185 25.7849 27.4732 25.9894L18.6552 34.8078L17.2176 33.3703L26.0204 24.5669C26.2104 24.8235 26.4209 25.0678 26.6511 25.2975ZM16.3244 41.068C16.3155 42.2147 15.9377 43.3052 15.2477 44.206L7.70716 36.6653C9.7733 35.1455 12.6823 35.2867 14.5903 37.0736C15.667 38.1502 16.3364 39.5241 16.3244 41.068ZM20.8858 39.4976C20.8858 40.1344 20.0983 40.4255 19.6575 39.9862L11.9408 32.2695C11.3063 31.6361 12.1988 30.652 12.8936 31.2083L20.7211 39.0341C20.8278 39.165 20.8858 39.3269 20.8858 39.4976ZM34.914 37.6569C35.805 38.5465 35.8047 40.0309 34.9136 40.9203L25.7105 50.1228L24.4026 48.8148L26.995 43.9157C27.1515 43.6203 27.0968 43.2574 26.8605 43.0209L25.2417 41.4016L31.9561 34.6987L34.914 37.6569ZM48.0822 14.5319C46.9137 16.8949 45.6008 18.6628 44.8965 19.5345L43.0072 17.649C42.3122 16.9552 41.2345 18.0323 41.9309 18.7273L43.8647 20.6573L24.1655 40.3232L21.8041 37.9623C21.7849 37.9416 21.7673 37.9198 21.7472 37.8996L19.7325 35.8852L28.876 26.7413C31.0932 27.593 33.6683 27.1371 35.4466 25.5603C37.1416 24.0573 37.925 21.7293 37.4833 19.5067C37.2375 18.2699 36.6178 17.1256 35.7257 16.2355C34.1941 14.7064 31.9419 14.0522 29.8277 14.5069C27.5821 14.9899 25.714 16.6988 25.0458 18.8996C24.621 20.2985 24.6905 21.8353 25.2439 23.1888L16.1401 32.2933L14.0306 30.184C14.0087 30.162 13.9848 30.1431 13.9622 30.1223L11.6075 27.7681L31.3066 8.1031L39.5079 16.3043C40.2022 16.9986 41.281 15.9227 40.5851 15.227L32.4327 7.07429C34.5263 5.39828 41.7585 0.271323 50.1941 1.80239C51.1204 6.89797 49.5734 11.5166 48.0822 14.5319Z" fill="black"/>
<path d="M0.759513 46.9388C0.954223 46.9388 1.14903 46.8645 1.29783 46.716L6.92544 41.0962C7.62018 40.4022 6.54516 39.3228 5.84879 40.0181L0.221292 45.638C-0.248166 46.1068 0.0938215 46.9388 0.759513 46.9388Z" fill="black"/>
<path d="M9.45946 42.5482C9.16216 42.2505 8.6798 42.2501 8.3822 42.5475L0.270904 50.648C-0.421907 51.3399 0.649964 52.4229 1.34755 51.726L9.45874 43.6255C9.75634 43.3282 9.75675 42.8458 9.45946 42.5482Z" fill="black"/>
<path d="M10.9152 45.0768L5.28843 50.6973C4.59572 51.3892 5.66759 52.472 6.36517 51.7752L11.992 46.1547C12.6866 45.4608 11.6113 44.3813 10.9152 45.0768Z" fill="black"/>
</svg>
