<svg width="47" height="47" viewBox="0 0 47 47" fill="none" xmlns="http://www.w3.org/2000/svg">
<path d="M43.4567 23.558C42.8099 22.9487 41.8652 23.9514 42.5119 24.5607C44.5468 26.478 45.6223 28.7483 45.6223 31.1261C45.6223 33.9557 44.0771 36.6539 41.2713 38.7239C41.0952 38.8538 40.9913 39.0595 40.9913 39.2782V44.6531L37.5355 41.1973C37.3482 41.01 37.0703 40.9468 36.8206 41.0344C34.5906 41.816 32.1883 42.2123 29.6805 42.2123C20.8903 42.2123 13.7388 37.2391 13.7388 31.1262C13.7388 27.6419 16.0996 24.7547 18.9148 22.9581C22.0923 20.9302 25.9383 20.0401 29.6806 20.0401C33.3598 20.0401 36.9517 20.9376 39.7946 22.5671C40.5654 23.0092 41.2506 21.8137 40.4797 21.3718C38.3401 20.1454 35.8929 19.3193 33.2724 18.9265V2.14698C33.2724 0.965932 32.3115 0.00512696 31.1305 0.00512696H2.14186C0.960897 0.00503511 0 0.965932 0 2.14698V5.42397C0 6.3124 1.3777 6.3124 1.3777 5.42397V2.14698C1.3777 1.72559 1.72047 1.38282 2.14186 1.38282H31.1303C31.5517 1.38282 31.8945 1.72559 31.8945 2.14698V18.7613C31.1667 18.6956 30.4278 18.6624 29.6804 18.6624C25.0969 18.6624 20.7792 19.9322 17.5228 22.2378C17.5129 22.2448 17.5033 22.2521 17.4934 22.2591H11.5764C11.3937 22.2591 11.2186 22.3317 11.0893 22.4609L5.22037 28.3299V22.948C5.22037 22.5676 4.91204 22.2591 4.53152 22.2591H2.14186C1.72047 22.2591 1.3777 21.9164 1.3777 21.495V9.09783C1.3777 8.2094 0 8.2094 0 9.09783V21.495C0 22.676 0.960897 23.6368 2.14186 23.6368H3.84276V29.993C3.84276 30.5913 4.59315 30.9056 5.01876 30.48L11.8619 23.6368H15.8182C13.5742 25.7802 12.3611 28.3809 12.3611 31.1262C12.3611 34.5012 14.1943 37.6577 17.5229 40.0145C20.7793 42.3202 25.097 43.59 29.6805 43.59C32.1907 43.59 34.605 43.2148 36.8641 42.4743L41.1931 46.8033C41.612 47.2221 42.3691 46.9161 42.3691 46.3163V39.6213C45.3588 37.3116 47.0001 34.3065 47.0001 31.1263C47 28.3592 45.7748 25.7422 43.4567 23.558Z" fill="black"/>
<path d="M26.6506 33.9417H37.9477C38.8362 33.9417 38.8362 32.564 37.9477 32.564H26.6506C25.7623 32.564 25.7623 33.9417 26.6506 33.9417Z" fill="black"/>
<path d="M33.4922 29.3034C33.4922 28.9229 33.1838 28.6145 32.8033 28.6145H21.4144C20.5259 28.6145 20.5259 29.9922 21.4144 29.9922H32.8033C33.1838 29.9922 33.4922 29.6838 33.4922 29.3034Z" fill="black"/>
<path d="M37.9469 28.6145H35.6507C34.7623 28.6145 34.7623 29.9922 35.6507 29.9922H37.9469C38.8353 29.9922 38.8353 28.6145 37.9469 28.6145Z" fill="black"/>
<path d="M8.35773 14.7456H19.7467C20.6351 14.7456 20.6351 13.3679 19.7467 13.3679H8.35773C7.4693 13.3679 7.4693 14.7456 8.35773 14.7456Z" fill="black"/>
<path d="M24.8912 10.7964C25.7796 10.7964 25.7796 9.4187 24.8912 9.4187H13.5023C12.6138 9.4187 12.6138 10.7964 13.5023 10.7964H24.8912Z" fill="black"/>
<path d="M8.35773 10.7964H10.6539C11.5423 10.7964 11.5423 9.4187 10.6539 9.4187H8.35773C7.4693 9.4187 7.4693 10.7964 8.35773 10.7964Z" fill="black"/>
<path d="M35.7909 7.0295C37.9275 7.37365 40.0153 8.68907 41.5192 10.6386C42.6417 12.0938 43.348 13.7694 43.5542 15.4077L42.4559 14.4302C41.7923 13.8395 40.8764 14.8686 41.54 15.4593L43.7198 17.3995C43.9742 17.7616 44.5283 17.7873 44.8215 17.4579L46.8049 15.2298C47.3955 14.5662 46.3667 13.6503 45.7757 14.3137L44.9244 15.2702C44.6918 13.3776 43.8886 11.4545 42.6101 9.79701C40.8944 7.57305 38.4888 6.06851 36.01 5.66925C35.1328 5.52763 34.9138 6.88824 35.7909 7.0295Z" fill="black"/>
<path d="M13.1511 44.4211C10.037 43.9195 7.42313 41.5139 6.15134 38.7004C5.77054 37.8581 5.50345 36.9609 5.38782 36.0428L6.48611 37.0204C7.1498 37.611 8.06569 36.582 7.4021 35.9913L5.22222 34.0511C4.96762 33.6886 4.41443 33.6626 4.12052 33.9926L2.13719 36.2208C1.54864 36.882 2.57374 37.8022 3.16633 37.1368L4.01765 36.1803C4.57856 40.7434 8.31818 45.0382 12.9321 45.7813C13.8096 45.9222 14.0278 44.5622 13.1511 44.4211Z" fill="black"/>
</svg>
