<svg width="50" height="50" viewBox="0 0 50 50" fill="none" xmlns="http://www.w3.org/2000/svg">
<path d="M4.64215 12.8393C4.67165 12.875 4.70555 12.9796 4.70379 13.0182L3.68094 18.9764C3.53518 19.8259 4.35288 20.3924 5.09359 20.0032L10.4428 17.1931C10.4861 17.176 10.5966 17.1761 10.633 17.1897L15.988 20.003C16.7277 20.3917 17.5442 19.8126 17.4007 18.9763L16.3789 13.0257C16.376 12.9794 16.41 12.8749 16.4343 12.8446L20.7662 8.62483C21.365 8.0418 21.067 7.08567 20.2268 6.96375L14.2469 6.09593C14.202 6.08431 14.1129 6.01963 14.0915 5.9871L11.4146 0.56618C11.0447 -0.182739 10.0439 -0.194658 9.66809 0.566083L6.99383 5.98065C6.96892 6.01983 6.87972 6.0845 6.84221 6.09476L0.854956 6.96394C0.0280767 7.08391 -0.292847 8.03271 0.315491 8.62493L4.64215 12.8393ZM7.05264 7.54502C7.55361 7.47224 8.07999 7.09006 8.3041 6.63628L10.5413 2.1073L12.7777 6.63618C13.0018 7.09006 13.5282 7.47224 14.0291 7.54493L19.0298 8.27089L15.412 11.7951C15.0493 12.1484 14.8482 12.767 14.9338 13.2662L15.7881 18.2428L11.3146 15.8926C10.8666 15.6572 10.2163 15.6572 9.76833 15.8926L5.29376 18.243L6.14809 13.2662C6.23377 12.767 6.03252 12.1483 5.66988 11.7952L2.05219 8.27098L7.05264 7.54502Z" fill="black"/>
<path d="M48.7793 23.4161H39.9721C39.2987 23.4161 38.7509 23.9639 38.7509 24.6373C38.7943 24.7987 38.7509 25.0238 38.7509 25.192C34.1221 24.8115 30.8351 21.4894 30.5938 16.8674C30.4539 14.1877 31.889 7.49146 27.5395 7.49146C24.7488 7.49146 23.4531 9.79282 22.8577 11.7234C22.3626 13.329 22.1114 15.3886 22.1114 17.8448C22.1114 18.7898 23.5768 18.7898 23.5768 17.8448C23.5768 15.5351 23.806 13.6209 24.258 12.1553C24.9218 10.0031 25.9951 8.95676 27.5395 8.95676C29.3254 8.95676 29.1637 11.3148 29.1615 12.551C29.157 14.9171 28.8853 17.3399 29.5397 19.6514C30.7064 23.7723 34.5776 26.3705 38.7485 26.6628V44.2574C37.9023 45.1066 34.1031 48.5305 27.878 48.5305H17.6399C18.7198 47.1126 18.6093 45.0676 17.3883 43.7712C19.6408 42.7981 20.3318 39.8279 18.7186 37.9677C22.1705 36.8212 21.9398 31.696 18.3953 30.8703C19.4476 29.567 19.4769 27.6642 18.4639 26.3298H22.1046C22.1231 27.4927 22.2754 29.8121 23.0911 32.2337C24.6317 36.8077 27.7936 39.502 32.2348 40.0259C33.1731 40.1363 33.3452 38.6812 32.4066 38.5706C27.0552 37.9394 24.3635 33.3825 23.7256 28.398C23.4219 26.025 23.577 23.56 23.577 21.1742C23.577 20.2292 22.1116 20.2292 22.1116 21.1742V24.8643L5.90325 24.8648C2.8895 24.8648 1.12232 28.4531 3.00058 30.8359C-0.253991 31.4387 -1.07589 35.8794 1.74834 37.6124C-0.573644 39.6686 0.627402 43.6214 3.69362 44.038C1.839 46.4231 3.60647 49.9905 6.60987 49.9905L27.8781 49.9959C33.266 49.9959 36.9446 47.7028 38.7511 46.231V47.6669C38.7511 48.3403 39.2989 48.8881 39.9723 48.8881H43.0458C43.9908 48.8881 43.9908 47.4227 43.0458 47.4227H40.2165V24.8815H48.5353V47.4227H46.2794C45.3344 47.4227 45.3344 48.8881 46.2794 48.8881H48.7795C49.4529 48.8881 50.0007 48.3403 50.0007 47.6669V24.6373C50.0005 23.9639 49.4527 23.4161 48.7793 23.4161ZM5.90315 26.3304H15.5202C16.7489 26.3304 17.7485 27.3291 17.7485 28.5566C17.7485 29.7171 16.8551 30.6724 15.7193 30.7733H5.70396C4.56788 30.6723 3.67408 29.717 3.67408 28.5566C3.67408 27.329 4.67397 26.3304 5.90315 26.3304ZM3.67466 36.6904C2.44626 36.6904 1.44676 35.6918 1.44676 34.4644C1.44676 33.2371 2.44616 32.2387 3.67466 32.2387H17.557C18.7854 32.2387 19.7849 33.2371 19.7849 34.4644C19.7849 35.6918 18.7855 36.6904 17.557 36.6904H3.67466ZM1.96541 40.382C1.96541 39.1582 2.94978 38.1621 4.16186 38.1559H15.9385C17.1623 38.1621 18.1561 39.1582 18.1561 40.382C18.1561 41.6091 17.1563 42.6074 15.9273 42.6074H4.19332C2.96482 42.6074 1.96541 41.6091 1.96541 40.382ZM4.38216 46.2989C4.38216 45.0715 5.38147 44.0728 6.60967 44.0728H14.7005C15.9288 44.0728 16.9282 45.0715 16.9282 46.2989C16.9282 47.5265 15.9289 48.5252 14.7005 48.5252H6.60967C5.38147 48.5252 4.38216 47.5265 4.38216 46.2989Z" fill="black"/>
<path d="M46.916 29.254C46.916 27.8534 45.7765 26.7139 44.3759 26.7139C42.9753 26.7139 41.8359 27.8534 41.8359 29.254C41.8359 30.6545 42.9753 31.7939 44.3759 31.7939C45.7765 31.7939 46.916 30.6545 46.916 29.254ZM44.3759 30.3285C43.7835 30.3285 43.3013 29.8465 43.3013 29.254C43.3013 28.6614 43.7835 28.1793 44.3759 28.1793C44.9685 28.1793 45.4506 28.6614 45.4506 29.254C45.4506 29.8465 44.9685 30.3285 44.3759 30.3285Z" fill="black"/>
</svg>
