<svg width="54" height="54" viewBox="0 0 54 54" fill="none" xmlns="http://www.w3.org/2000/svg">
<path d="M18.5069 16.7344C18.3731 14.8604 16.6403 14.3219 15.6524 14.0717V11.0862C16.3397 11.2926 16.7555 11.731 16.783 11.7609C17.4623 12.5143 18.6403 11.4691 17.9616 10.7056C17.9206 10.6595 17.068 9.71921 15.6524 9.4625C15.7374 8.23938 14.0251 8.23305 14.0703 9.47568C13.5358 9.57177 13.0442 9.75497 12.6399 10.0173C11.8192 10.5496 11.3673 11.3921 11.3673 12.3894C11.3673 14.2949 13.0249 14.9798 14.0705 15.2882V18.3372C12.9871 18.0609 12.3513 17.2724 12.3219 17.2351C11.7014 16.428 10.4431 17.3871 11.068 18.1997C11.1185 18.2655 12.1995 19.6414 14.0705 19.9516C14.0246 21.1808 15.7449 21.1807 15.6525 19.9548C16.5405 19.8241 17.2658 19.4762 17.7762 18.9281C18.3153 18.3489 18.568 17.5902 18.5069 16.7344ZM14.0702 13.6191C13.3502 13.346 12.9491 12.9983 12.9491 12.3894C12.9491 11.5961 13.5281 11.2482 14.0702 11.0963V13.6191ZM16.6182 17.85C16.3995 18.0849 16.0679 18.2536 15.6524 18.3472V15.7149C16.463 15.9626 16.8866 16.2553 16.929 16.847C16.9583 17.2595 16.8538 17.597 16.6182 17.85Z" fill="black"/>
<path d="M34.5494 41.3934H35.4143C35.5919 42.0592 35.8576 42.6477 36.2068 43.1393C37.5401 45.0163 40.1091 45.2923 42.1224 44.4306C42.5241 44.2586 42.7101 43.7936 42.5382 43.392C42.3663 42.9905 41.9014 42.8043 41.4998 42.9761C40.5763 43.3714 39.4099 43.4823 38.4796 43.0445C37.7898 42.7199 37.328 42.0961 37.0693 41.3934H39.3242C40.3423 41.3934 40.3492 39.8113 39.3242 39.8113H36.7532C36.7262 39.4275 36.7262 39.0416 36.7532 38.6577H39.3242C40.3423 38.6577 40.3492 37.0757 39.3242 37.0757H37.0693C37.3234 36.3854 37.7735 35.7689 38.4461 35.4403C39.3282 35.0093 40.4351 35.0859 41.3327 35.4255C42.2868 35.7864 42.8467 34.3069 41.8926 33.9459C40.5861 33.4516 39.0165 33.3952 37.7411 34.0177C36.5173 34.6149 35.7581 35.7874 35.4143 37.0757H34.5494C33.5313 37.0757 33.5243 38.6577 34.5494 38.6577H35.1677C35.1451 39.0417 35.1451 39.4273 35.1677 39.8113H34.5494C33.5313 39.8113 33.5243 41.3934 34.5494 41.3934Z" fill="black"/>
<path d="M14.7089 29.4177C22.8193 29.4177 29.4177 22.8193 29.4177 14.7089C29.4177 6.59844 22.8193 0 14.7089 0C6.59844 0 0 6.59834 0 14.7088C0 22.8192 6.59844 29.4177 14.7089 29.4177ZM14.7089 1.58203C21.947 1.58203 27.8356 7.47067 27.8356 14.7088C27.8356 21.9469 21.947 27.8356 14.7089 27.8356C7.47067 27.8356 1.58203 21.947 1.58203 14.7088C1.58203 7.47056 7.47067 1.58203 14.7089 1.58203Z" fill="black"/>
<path d="M14.7085 24.8899C20.3223 24.8899 24.8895 20.3227 24.8895 14.7089C24.8895 12.4833 24.1842 10.3693 22.8501 8.59534C22.237 7.77996 20.9727 8.73087 21.5858 9.54625C22.7122 11.0439 23.3074 12.8292 23.3074 14.7089C23.3074 19.4505 19.4499 23.3079 14.7085 23.3079C9.9669 23.3079 6.10938 19.4504 6.10938 14.7089C6.10938 9.96749 9.9669 6.10986 14.7085 6.10986C16.2213 6.10986 17.7085 6.50801 19.0095 7.26105C19.8925 7.77216 20.6849 6.40307 19.8022 5.89196C18.2606 4.99959 16.4993 4.52794 14.7085 4.52783C9.09446 4.52783 4.52734 9.09505 4.52734 14.7088C4.52734 20.3226 9.09446 24.8899 14.7085 24.8899Z" fill="black"/>
<path d="M39.291 24.5825C35.6899 24.5825 32.2246 25.8973 29.5334 28.2848C28.7702 28.9618 29.8203 30.1454 30.5833 29.4683C32.9847 27.3379 36.0772 26.1646 39.291 26.1646C46.5291 26.1646 52.4178 32.0532 52.4178 39.2914C52.4178 46.5296 46.5291 52.4181 39.291 52.4181C32.0528 52.4181 26.1642 46.5295 26.1642 39.2914C26.1642 36.7556 26.8882 34.295 28.2581 32.1757C28.8119 31.3189 27.4834 30.4602 26.9294 31.3169C25.3937 33.6927 24.582 36.4502 24.582 39.2914C24.5821 47.4018 31.1806 54.0002 39.291 54.0002C47.4015 54.0002 53.9998 47.4018 53.9998 39.2914C53.9998 31.181 47.4015 24.5825 39.291 24.5825Z" fill="black"/>
<path d="M39.2905 49.4721C44.9044 49.4721 49.4715 44.9049 49.4715 39.2911C49.4715 33.6773 44.9043 29.1101 39.2905 29.1101C33.6765 29.1101 29.1094 33.6773 29.1094 39.2911C29.1094 44.9049 33.6766 49.4721 39.2905 49.4721ZM39.2905 30.692C44.0319 30.692 47.8895 34.5496 47.8895 39.291C47.8895 44.0325 44.0319 47.89 39.2905 47.89C34.5489 47.89 30.6914 44.0325 30.6914 39.291C30.6914 34.5496 34.5489 30.692 39.2905 30.692Z" fill="black"/>
<path d="M22.3333 48.4385C13.7925 48.4385 6.72274 42.0217 5.6902 33.756L6.45812 34.6737C7.11277 35.4561 8.32608 34.4407 7.67143 33.6584L5.41725 30.9648C5.06636 30.5455 4.37965 30.6127 4.11693 31.0923L2.34885 34.3189C1.86053 35.21 3.24459 35.9767 3.73618 35.0792L4.16692 34.2932C5.44583 43.1737 13.1044 50.0204 22.3332 50.0204C23.3534 50.0205 23.3534 48.4385 22.3333 48.4385Z" fill="black"/>
<path d="M31.6655 5.56135C40.1766 5.56135 47.227 11.9336 48.2976 20.1576L47.4045 19.2087C46.7054 18.4659 45.5534 19.5502 46.2525 20.293L48.5433 22.7267C48.8748 23.3055 49.7631 23.2213 49.9781 22.5891L51.5275 19.323C51.9647 18.4013 50.5354 17.7234 50.098 18.645L49.7733 19.3293C48.3349 10.6328 40.7631 3.979 31.6654 3.979C30.6454 3.97932 30.6454 5.56135 31.6655 5.56135Z" fill="black"/>
</svg>
