<svg width="10" height="9" viewBox="0 0 10 9" fill="none" xmlns="http://www.w3.org/2000/svg">
<path d="M8.44558 0.518337C8.61838 0.353821 8.84834 0.26287 9.08693 0.264675C9.32551 0.26648 9.55407 0.360901 9.72436 0.528013C9.89466 0.695125 9.99337 0.921857 9.99968 1.16037C10.006 1.39888 9.91939 1.63051 9.75816 1.80639L4.86357 7.9277C4.7794 8.01835 4.67782 8.0911 4.5649 8.14159C4.45198 8.19209 4.33003 8.2193 4.20636 8.22159C4.08268 8.22388 3.95981 8.2012 3.8451 8.15492C3.73038 8.10864 3.62618 8.0397 3.53872 7.95223L0.292827 4.70634C0.202435 4.62211 0.129933 4.52054 0.0796475 4.40768C0.0293621 4.29483 0.00232279 4.173 0.000143182 4.04946C-0.00203643 3.92593 0.0206883 3.80322 0.0669613 3.68866C0.113234 3.5741 0.182108 3.47003 0.269473 3.38267C0.356838 3.2953 0.460905 3.22643 0.575465 3.18016C0.690026 3.13389 0.812734 3.11116 0.936267 3.11334C1.0598 3.11552 1.18163 3.14256 1.29449 3.19284C1.40734 3.24313 1.50892 3.31563 1.59315 3.40602L4.16189 5.97354L8.42227 0.545325C8.42994 0.53588 8.43813 0.52687 8.4468 0.518337H8.44558Z" fill="#F89D33"/>
</svg>
