<svg width="21" height="17" viewBox="0 0 21 17" fill="none" xmlns="http://www.w3.org/2000/svg">
<path d="M10.631 7.07522C10.6155 7.05179 10.5955 7.03284 10.5728 7.01981C10.5501 7.00677 10.5251 7 10.4998 7C10.4745 7 10.4495 7.00677 10.4268 7.01981C10.4041 7.03284 10.3841 7.05179 10.3686 7.07522L8.03536 10.5477C8.01612 10.5766 8.00419 10.6112 8.00092 10.6477C7.99765 10.6842 8.00317 10.7211 8.01686 10.7541C8.03055 10.787 8.05186 10.8148 8.07833 10.8342C8.10481 10.8536 8.1354 10.8639 8.1666 10.8638H9.7061V16.804C9.7061 16.9118 9.78109 17 9.87275 17H11.1227C11.2143 17 11.2893 16.9118 11.2893 16.804V10.8662H12.833C12.9726 10.8662 13.0497 10.6775 12.9642 10.5501L10.631 7.07522Z" fill="black"/>
<path d="M17.5172 4.823C16.4438 2.00433 13.7086 0 10.5047 0C7.30078 0 4.56563 2.002 3.49219 4.82067C1.48359 5.34567 0 7.168 0 9.33333C0 11.9117 2.09766 14 4.68516 14H5.625C5.72813 14 5.8125 13.916 5.8125 13.8133V12.4133C5.8125 12.3107 5.72813 12.2267 5.625 12.2267H4.68516C3.89531 12.2267 3.15234 11.914 2.59922 11.347C2.04844 10.7823 1.75547 10.0217 1.78125 9.233C1.80234 8.617 2.01328 8.03833 2.39531 7.55067C2.78672 7.05367 3.33516 6.692 3.94453 6.531L4.83281 6.3L5.15859 5.446C5.36016 4.914 5.64141 4.417 5.99531 3.96667C6.3447 3.52032 6.75857 3.12795 7.22344 2.80233C8.18672 2.128 9.32109 1.771 10.5047 1.771C11.6883 1.771 12.8227 2.128 13.7859 2.80233C14.2523 3.129 14.6648 3.521 15.0141 3.96667C15.368 4.417 15.6492 4.91633 15.8508 5.446L16.1742 6.29767L17.0602 6.531C18.3305 6.87167 19.2188 8.022 19.2188 9.33333C19.2188 10.1057 18.9164 10.8337 18.368 11.3797C18.099 11.649 17.7791 11.8625 17.4266 12.0079C17.0742 12.1533 16.6963 12.2277 16.3148 12.2267H15.375C15.2719 12.2267 15.1875 12.3107 15.1875 12.4133V13.8133C15.1875 13.916 15.2719 14 15.375 14H16.3148C18.9023 14 21 11.9117 21 9.33333C21 7.17033 19.5211 5.35033 17.5172 4.823Z" fill="black"/>
</svg>
