<svg width="231" height="56" viewBox="0 0 231 56" fill="none" xmlns="http://www.w3.org/2000/svg">
<path d="M0 0V19.8947H26.1197V25.5628H6.0363V29.1903H26.1197V44.2105H0V56H11.8469C11.9228 55.035 12.1015 54.0682 12.2345 53.1093C12.3122 52.5485 12.3102 51.8944 12.4832 51.3556C12.6122 50.9539 13.4844 51.0402 13.5958 51.4089C14.1401 51.073 14.8151 50.7996 15.2083 51.5223C15.9382 52.8639 14.7938 55.0207 13.2009 54.6397C13.1728 55.2969 13.1817 55.9427 12.4111 55.9433V56H52.4086C52.4845 55.035 52.6632 54.0682 52.7962 53.1093C52.8739 52.5485 52.8719 51.8944 53.0449 51.3556C53.1739 50.9539 54.0461 51.0402 54.1575 51.4089C54.7018 51.073 55.3767 50.7996 55.77 51.5223C56.4998 52.8639 55.3555 55.0207 53.7626 54.6397C53.7345 55.2969 53.7434 55.9427 52.9728 55.9433V56H230V49.7652H229.944C229.942 51.9695 227.904 53.057 226.164 53.9167C221.805 56.0699 216.915 55.3198 212.23 55.3198C212.228 53.8479 211.864 52.3584 211.286 51.0121C210.766 49.7994 209.998 48.6611 209.07 47.7247C204.829 43.4423 197.746 43.345 193.444 47.6122C192.423 48.6253 191.622 49.8602 191.059 51.1822C190.518 52.4524 190.228 53.8265 190.228 55.2065L151.359 55.3765C151.991 54.6892 153.043 54.2503 153.785 53.6642C155.401 52.3859 156.84 50.9427 158.105 49.3117C162.558 43.5698 164.145 35.6527 162.223 28.6235C161.785 27.0232 161.223 25.4612 160.484 23.9757C160.126 23.2569 159.423 22.469 159.207 21.7085C159.111 21.3719 159.728 20.9608 159.929 20.7449C160.516 20.1117 161.127 19.3166 161.194 18.4211C161.256 17.5814 160.522 17.0279 159.99 16.4939C159.078 15.5774 158.138 14.688 157.226 13.7733C156.663 13.2091 156.075 12.4917 155.364 12.1174C154.05 11.4253 153.109 12.163 152.206 13.0931C151.963 13.343 151.623 13.9365 151.27 14.0183C150.984 14.0845 150.375 13.5773 150.118 13.4473C149.202 12.9838 148.147 12.3625 147.128 12.1862C147.132 10.5672 147.432 8.99883 147.302 7.36842C147.242 6.61928 147.135 5.73019 146.688 5.10121C146.059 4.21523 144.901 4.06583 143.912 3.93499C141.96 3.67675 139.899 3.99524 137.932 3.9087C136.582 3.84932 134.977 3.59296 133.758 4.30769V1.1336L133.66 0.0582542L133.081 0H131.558H125.634H102.617H0Z" fill="white"/>
<path d="M133.721 0.0378418L133.739 0.0749514L133.721 0.0378418Z" fill="#010101"/>
<path d="M133.758 0V4.30769C135.186 3.71012 136.534 3.90357 138.045 3.91089C139.914 3.91994 141.823 3.78779 143.687 3.916C144.753 3.9894 146.026 4.22331 146.688 5.15789C147.135 5.78733 147.242 6.67568 147.302 7.4251C147.431 9.03589 147.129 10.5867 147.128 12.1862C148.142 12.4643 149.126 12.9742 150.061 13.4473C150.366 13.6011 150.901 14.0662 151.246 14.0424C151.606 14.0176 151.972 13.3877 152.205 13.1498C153.104 12.2354 153.983 11.4195 155.308 12.1174C156.026 12.4953 156.596 13.2106 157.17 13.7724C158.112 14.6959 159.059 15.6146 159.99 16.5506C160.552 17.1151 161.265 17.6526 161.173 18.5344C161.087 19.3487 160.474 20.1189 159.932 20.6883C159.727 20.9028 159.111 21.3207 159.153 21.6518C159.182 21.8792 159.423 22.1409 159.542 22.332C159.817 22.7731 160.077 23.2298 160.314 23.6923C161.029 25.0851 161.625 26.5487 162.053 28.0567C164.037 35.0398 162.794 42.492 158.691 48.4615C157.444 50.2763 155.891 51.9262 154.18 53.302C153.577 53.7868 152.961 54.2474 152.318 54.6775C152.012 54.8822 151.553 55.0573 151.359 55.3765L190.228 55.2065C190.228 53.8814 190.516 52.5807 191.007 51.3522C191.464 50.2081 192.131 49.1669 192.929 48.2348C197.122 43.34 204.6 43.2822 209.071 47.7814C210.004 48.7201 210.764 49.8513 211.287 51.0688C211.856 52.396 212.226 53.8676 212.23 55.3198C214.521 55.3198 216.825 55.4337 219.112 55.3774C219.894 55.3581 220.705 55.4536 221.482 55.3603C222.956 55.1832 224.41 54.7077 225.769 54.1211C227.204 53.502 229.178 52.584 229.762 51.0121C230.127 50.0304 230.084 48.704 229.735 47.7247C229.594 47.3284 229.221 47.1117 229.075 46.7515C228.968 46.4866 229.041 46.0798 229.041 45.7976C229.041 43.859 229.404 40.8169 227.964 39.2802C227.068 38.3242 225.548 38.138 224.415 37.5649C222.372 36.5314 220.492 35.2213 218.379 34.3157C217.501 33.9393 216.598 33.6115 215.671 33.3787C215.229 33.2675 214.672 33.2691 214.261 33.0766C213.784 32.8537 213.357 32.2728 212.963 31.9203C212.202 31.2384 211.391 30.6108 210.594 29.9725C207.917 27.8301 205.117 25.8484 202.47 23.6683C201.76 23.0834 200.287 22.1625 200.119 21.1984C199.933 20.133 200.799 19.1742 201.25 18.3077C201.947 16.9688 202.038 15.152 201.26 13.83C200.334 12.2578 198.681 11.2164 197.054 10.4938C194.588 9.39808 191.974 8.7224 189.326 8.24266C188.265 8.0504 187.004 8.12981 185.997 7.7522C185.222 7.46132 184.617 6.80995 183.966 6.31842C182.829 5.46022 181.248 4.48387 179.792 4.36437V45.4575H176.632V0.11336L133.758 0Z" fill="#3E6EA8"/>
<path d="M138.215 0V0.0566802L176.633 0.11336V45.4575H179.792V4.36437C181.192 4.55392 182.684 5.39127 183.797 6.22887C184.5 6.75724 185.155 7.47305 185.998 7.77278C187.071 8.15463 188.423 8.0924 189.552 8.28947C192.438 8.79336 195.503 9.57164 198.07 11.0286C199.259 11.7033 200.421 12.5344 201.16 13.7166C202.003 15.0655 201.963 16.7845 201.278 18.1943C200.813 19.1531 199.968 20.0417 200.112 21.1984C200.199 21.8987 200.975 22.4022 201.455 22.8421C202.82 24.0931 204.324 25.2191 205.799 26.3351C207.691 27.767 209.608 29.1791 211.44 30.688C212.09 31.2227 212.729 31.766 213.358 32.3239C213.618 32.5542 213.845 32.8747 214.148 33.048C214.549 33.277 215.167 33.2662 215.615 33.3787C216.524 33.607 217.402 33.9312 218.266 34.2922C220.444 35.2019 222.375 36.5606 224.472 37.6216C225.652 38.2182 227.183 38.3775 228.064 39.4494C229.683 41.4191 228.669 44.4128 229.05 46.6993C229.098 46.9866 229.445 47.1878 229.586 47.4413C229.851 47.9175 229.943 48.4904 229.944 49.0283H230V0H138.215Z" fill="white"/>
<path d="M145.773 4.3645L145.83 4.42118L145.773 4.3645ZM183.684 6.12159L183.74 6.17827L183.684 6.12159Z" fill="#010101"/>
<path d="M136.296 12.1296V14.17C133.87 14.4796 131.437 15.2956 129.3 16.4861C128.562 16.8973 127.847 17.3513 127.157 17.8384C126.955 17.9807 126.572 18.4117 126.31 18.3776C126.081 18.3477 125.469 17.7521 125.467 17.5142C125.466 17.1902 125.931 16.9247 125.959 16.5506C126.021 15.7428 124.648 14.5539 123.885 14.5364C123.373 14.5246 123.027 14.9747 122.7 15.3036L120.838 17.1741C120.422 17.5921 119.996 17.9502 120.026 18.5911C120.064 19.4101 121.017 20.4461 121.854 20.4605C122.269 20.4676 122.581 20.058 122.926 20.0671C123.122 20.0723 123.308 20.3342 123.433 20.4615C123.526 20.5563 123.668 20.6669 123.703 20.8016C123.768 21.0423 123.368 21.3711 123.231 21.5385C122.731 22.1524 122.264 22.7984 121.836 23.4656C120.425 25.6667 119.382 28.1909 118.934 30.7773C118.323 34.3104 118.494 37.9665 119.658 41.3765C122.337 49.2279 129.741 55.009 138.044 55.3743C141.612 55.5312 145.153 54.8391 148.368 53.2647C156.994 49.0407 161.5 38.9192 159.192 29.6437C158.584 27.1993 157.548 24.8403 156.089 22.7854C155.63 22.1397 155.149 21.3434 154.517 20.8583V20.8016L155.42 19.8947H155.476C156.516 21.3637 158.792 19.5298 158.291 18.081C158.084 17.4819 157.379 16.9879 156.943 16.5506C156.211 15.8147 155.095 14.0471 153.897 14.7038C153.612 14.8601 153.39 15.1324 153.163 15.3603C152.927 15.5978 152.631 15.8367 152.499 16.1539C152.227 16.8083 152.936 16.9996 152.934 17.5142C152.934 17.7264 152.622 17.9462 152.486 18.0809C152.371 18.196 152.218 18.4016 152.035 18.3903C151.739 18.3721 151.315 17.9118 151.076 17.7409C150.336 17.2115 149.557 16.7581 148.763 16.316C146.73 15.1838 144.35 14.4624 142.05 14.17V12.1296C142.804 12.1296 143.769 12.273 144.27 11.5625C144.617 11.0693 144.532 10.3751 144.532 9.80567C144.532 8.45617 144.677 6.35742 142.783 6.34824C140.941 6.33928 139.098 6.34818 137.255 6.34818C136.414 6.34818 135.447 6.1799 134.716 6.67404C133.653 7.39274 133.757 8.44217 133.757 9.57895C133.757 10.3314 133.755 11.0404 134.326 11.6142C134.88 12.1704 135.574 12.1296 136.296 12.1296Z" fill="#3E6EA8"/>
<path d="M134.21 7.08521L134.266 7.14189L134.21 7.08521ZM134.041 7.31193L134.097 7.36861L134.041 7.31193ZM185.547 7.53865L185.603 7.59533L185.547 7.53865ZM188.198 8.04877L188.254 8.10545L188.198 8.04877ZM189.608 8.27549L189.665 8.33217L189.608 8.27549ZM191.526 8.67225L191.583 8.72893L191.526 8.67225ZM193.67 9.23905L193.727 9.29573L193.67 9.23905ZM194.573 9.52245L194.629 9.57913L194.573 9.52245ZM194.742 9.57913L194.798 9.63581L194.742 9.57913ZM147.241 10.486L147.298 10.5427L147.241 10.486ZM133.815 10.7694L133.871 10.8261L133.815 10.7694ZM144.477 10.8828L144.534 10.9395L144.477 10.8828ZM147.185 11.1095L147.241 11.1662L147.185 11.1095ZM198.465 11.2229L198.522 11.2795L198.465 11.2229ZM134.097 11.3362L134.153 11.3929L134.097 11.3362ZM199.086 11.6196L199.142 11.6763L199.086 11.6196ZM199.763 12.1297L199.819 12.1864L199.763 12.1297ZM152.939 12.2998L152.996 12.3565L152.939 12.2998ZM152.77 12.4698L152.826 12.5265L152.77 12.4698ZM152.714 12.5265L152.77 12.5832L152.714 12.5265ZM156.211 12.8099L156.268 12.8666L156.211 12.8099ZM151.867 13.4334L151.924 13.4901L151.867 13.4334ZM201.06 13.5467L201.117 13.6034L201.06 13.5467ZM157.509 14.0569L157.565 14.1135L157.509 14.0569ZM157.565 14.1135L157.622 14.1702L157.565 14.1135ZM157.622 14.1702L157.678 14.2269L157.622 14.1702ZM134.605 14.4536L134.661 14.5103L134.605 14.4536ZM123.717 14.5103L123.773 14.567L123.717 14.5103ZM143.969 14.5103L144.026 14.567L143.969 14.5103ZM144.421 14.6237L144.477 14.6803L144.421 14.6237ZM124.45 14.6803L124.507 14.737L124.45 14.6803ZM146.226 15.1905L146.282 15.2472L146.226 15.1905ZM130.712 15.7573L130.769 15.814L130.712 15.7573ZM147.862 15.8706L147.918 15.9273L147.862 15.8706ZM148.877 16.3808L148.934 16.4374L148.877 16.3808ZM127.835 17.3443L127.891 17.401L127.835 17.3443Z" fill="#010101"/>
<path d="M138.158 17.4248C134.216 17.9449 130.684 19.0883 127.665 21.8315C121.601 27.3419 120.195 36.7606 124.531 43.7571C125.656 45.5739 127.1 47.1704 128.794 48.4681C130.568 49.8282 132.621 50.8153 134.774 51.4003C136.891 51.9759 139.145 52.1178 141.318 51.8462C149.458 50.8287 155.817 43.9577 156.375 35.7652C156.95 27.3293 150.924 19.4107 142.672 17.7522C141.237 17.4638 139.621 17.2319 138.158 17.4248Z" fill="white"/>
<path d="M127.664 17.4575L127.72 17.5142L127.664 17.4575ZM137.424 17.4575L137.48 17.5142L137.424 17.4575ZM150.907 17.6276L150.963 17.6842L150.907 17.6276ZM135.901 17.6842L135.957 17.7409L135.901 17.6842ZM135.618 17.7409L135.675 17.7976L135.618 17.7409ZM134.885 17.911L134.941 17.9676L134.885 17.911ZM151.302 17.911L151.358 17.9676L151.302 17.911ZM143.855 18.0243L143.911 18.081L143.855 18.0243Z" fill="#010101"/>
<path d="M122.758 34.6883H124.112C124.34 34.2026 125.328 34.1347 125.799 34.3336C125.971 34.4069 126.03 34.6169 126.211 34.6703C126.507 34.7573 126.908 34.6883 127.215 34.6883C129.957 34.6883 132.832 34.9392 135.562 34.685C135.894 34.654 135.941 34.2275 136.187 34.0406C136.468 33.8271 136.868 33.8948 137.2 33.8948C136.7 33.1823 135.951 32.5838 135.338 31.9677L131.728 28.3401C131.252 27.8615 129.846 26.9146 130.509 26.1356C131.397 25.0922 132.511 26.8029 133.082 27.3766C134.54 28.8415 135.967 30.3325 137.425 31.7976C138.052 32.4275 138.616 33.2101 139.344 33.7247V21.4251C138.684 21.1991 138.643 19.6396 139.344 19.4413V18.1377C137.39 18.1377 135.426 18.4049 133.589 19.1049C127.288 21.5062 122.758 27.872 122.758 34.6883Z" fill="#F59E2F"/>
<path d="M137.425 18.1943L137.481 18.251L137.425 18.1943ZM151.754 18.251L151.81 18.3077L151.754 18.251ZM126.424 18.3644L126.48 18.4211L126.424 18.3644ZM132.404 18.7611L132.46 18.8178L132.404 18.7611ZM158.298 18.8745L158.354 18.9312L158.298 18.8745ZM200.834 18.8745L200.89 18.9312L200.834 18.8745ZM158.241 19.0445L158.298 19.1012L158.241 19.0445ZM133.25 19.2146L133.306 19.2713L133.25 19.2146ZM160.893 19.3279L160.949 19.3846L160.893 19.3279Z" fill="#010101"/>
<path d="M139.343 19.4366C138.672 19.3988 138.641 21.4127 139.343 21.4127C139.965 21.4127 139.939 19.4701 139.343 19.4366Z" fill="#3E6EA8"/>
<path d="M132.741 19.4412L132.798 19.4978L132.741 19.4412ZM130.598 19.6679L130.654 19.7246L130.598 19.6679ZM160.666 19.7246L160.723 19.7812L160.666 19.7246ZM147.917 19.7812L147.973 19.8379L147.917 19.7812Z" fill="#010101"/>
<path d="M0 19.8948V34.8583H20.0834V38.5425H0V44.2106H26.1197V29.1903H6.0363V25.5628H26.1197V19.8948H0ZM28.7147 19.8948V25.5628H38.7564V44.2106H44.8492V25.5628H54.8909V19.8948H28.7147ZM57.4859 19.8948V44.2106H83.662V38.5425H63.5786V34.8583H83.662V29.1903H63.5786V25.5628H83.662V19.8948H57.4859Z" fill="#3E6EA8"/>
<path d="M86.8203 19.8946L89.166 22.9553L93.7395 28.8501L95.5447 31.1739L96.1585 32.0568L95.5408 32.931L93.691 35.3116L88.9838 41.3764L86.8203 44.2104H92.0104C92.649 44.2104 93.669 44.4073 94.2647 44.1762C94.8367 43.9542 95.4116 42.8191 95.7901 42.3399C96.7091 41.1754 97.6129 39.9981 98.5217 38.8258C98.9967 38.2133 99.6201 37.5938 99.9648 36.8986H100.078C100.295 37.4154 100.76 37.8721 101.1 38.3156C101.856 39.3018 102.621 40.2805 103.382 41.263C105.647 44.1881 107.888 47.1321 110.164 50.0484C111.03 51.1588 111.884 52.2795 112.747 53.3926C113.052 53.7864 113.416 54.5057 113.852 54.7513C114.334 55.0224 115.437 54.8096 115.986 54.8096H121.346C121.085 54.1915 120.505 53.6399 120.098 53.1092C119.197 51.9333 118.281 50.7687 117.377 49.595C114.375 45.6967 111.362 41.807 108.347 37.9189L105.009 33.6112C104.754 33.2821 103.851 32.4494 103.887 32.0241C103.913 31.7275 104.345 31.3446 104.522 31.1173L106.328 28.7934C107.887 26.7951 109.434 24.7872 110.989 22.7853C111.676 21.9013 112.731 20.9269 113.166 19.8946H107.806C107.257 19.8946 106.154 19.6818 105.672 19.9529C105.041 20.3078 104.485 21.4201 104.038 21.9918C102.692 23.7163 101.442 25.5941 99.9648 27.2063C99.6579 26.5145 99.0018 25.8708 98.5319 25.2792C97.6236 24.1364 96.7277 22.9803 95.8398 21.8217C95.4567 21.3216 94.8587 20.159 94.2647 19.9288C93.6684 19.6978 92.6496 19.8946 92.0104 19.8946H86.8203Z" fill="#F59E2F"/>
<path d="M131.727 19.9514L131.784 20.0081L131.727 19.9514ZM94.4941 20.1215L94.5506 20.1781L94.4941 20.1215ZM121.404 20.3482L121.46 20.4049L121.404 20.3482ZM112.772 20.4049L112.829 20.4615L112.772 20.4049ZM160.104 20.4615L160.16 20.5182L160.104 20.4615ZM128.963 20.7449L129.02 20.8016L128.963 20.7449ZM149.441 20.8016L149.498 20.8583L149.441 20.8016ZM112.377 20.915L112.434 20.9717L112.377 20.915ZM128.737 20.915L128.794 20.9717L128.737 20.915ZM149.949 21.1984L150.006 21.2551L149.949 21.1984ZM129.64 21.2551L129.696 21.3117L129.64 21.2551Z" fill="#010101"/>
<path d="M146.456 21.3591C146.129 21.4688 145.645 22.3963 145.622 22.7289C145.601 23.0341 145.862 23.291 146.168 23.186C146.519 23.0657 147.006 22.1826 147.043 21.822C147.075 21.5228 146.742 21.2633 146.456 21.3591Z" fill="#3E6EA8"/>
<path d="M87.9492 21.3684L88.0056 21.4251L87.9492 21.3684Z" fill="#010101"/>
<path d="M131.84 21.3684V21.4251H132.122L131.84 21.3684Z" fill="#868179"/>
<path d="M95.5078 21.425L95.5642 21.4817L95.5078 21.425Z" fill="#010101"/>
<path d="M131.739 21.4834C131.244 21.7871 132.166 23.4576 132.733 23.1239C133.249 22.8197 132.353 21.1062 131.739 21.4834Z" fill="#3E6EA8"/>
<path d="M146.225 21.4819L146.281 21.5386L146.225 21.4819ZM129.188 21.5953L129.244 21.652L129.188 21.5953Z" fill="#010101"/>
<path d="M131.5 21.7085V21.8785H131.556L131.5 21.7085Z" fill="#A78A63"/>
<path d="M88.3438 21.8784L88.4002 21.9351L88.3438 21.8784ZM150.738 21.8784L150.794 21.9351L150.738 21.8784ZM95.9032 21.9351L95.9596 21.9918L95.9032 21.9351ZM122.756 22.1051L122.813 22.1618L122.756 22.1051ZM103.745 22.3319L103.801 22.3885L103.745 22.3319ZM122.587 22.3319L122.643 22.3885L122.587 22.3319ZM159.651 22.5019L159.707 22.5586L159.651 22.5019ZM201.228 22.6153L201.285 22.6719L201.228 22.6153Z" fill="#010101"/>
<path d="M132.912 22.6721V22.8988H132.969L132.912 22.6721Z" fill="#99866C"/>
<path d="M110.967 22.7288L111.024 22.7854L110.967 22.7288ZM103.352 22.8421L103.408 22.8988L103.352 22.8421Z" fill="#010101"/>
<path d="M132.461 23.1821V23.2388H132.687L132.461 23.1821Z" fill="#B28C5B"/>
<path d="M96.9199 23.2388L96.9763 23.2954L96.9199 23.2388ZM110.572 23.2388L110.629 23.2954L110.572 23.2388ZM126.255 23.2388L126.312 23.2954L126.255 23.2388Z" fill="#010101"/>
<path d="M183.289 23.3521C183.289 26.0748 183.458 28.7928 183.458 31.5141C183.458 32.1214 183.515 32.723 183.515 33.3279C183.515 33.6754 183.439 34.1285 183.546 34.4615C183.659 34.8089 184.038 35.2101 184.286 35.4733C184.569 35.7744 185.167 35.6517 185.546 35.6517H188.818C193.255 35.6517 197.694 35.5384 202.131 35.5384H205.798C206.165 35.5384 206.891 35.6231 207.139 35.3033C207.326 35.0606 207.845 34.38 207.782 34.0647C207.697 33.6327 206.839 33.0697 206.532 32.7611C205.356 31.5815 204.099 30.4811 202.921 29.3035C201.592 27.9744 200.188 26.7212 198.859 25.3926C198.249 24.7821 197.484 23.7396 196.716 23.3537C196.415 23.2028 195.916 23.2955 195.587 23.2955H192.936C189.718 23.2955 186.508 23.3521 183.289 23.3521Z" fill="white"/>
<path d="M102.954 23.3523L103.011 23.409L102.954 23.3523ZM125.915 23.6357L125.971 23.6924L125.915 23.6357ZM121.627 23.7491L121.684 23.8057L121.627 23.7491ZM102.56 23.8624L102.616 23.9191L102.56 23.8624ZM152.768 24.0891L152.824 24.1458L152.768 24.0891ZM203.033 24.1458L203.089 24.2025L203.033 24.1458ZM90.1484 24.2025L90.2049 24.2592L90.1484 24.2025ZM156.999 24.2592L157.055 24.3159L156.999 24.2592ZM203.315 24.3725L203.371 24.4292L203.315 24.3725ZM197.843 24.4292L197.899 24.4859L197.843 24.4292ZM153.106 24.5426L153.163 24.5993L153.106 24.5426ZM121.007 24.826L121.063 24.8827L121.007 24.826ZM124.899 24.996L124.956 25.0527L124.899 24.996ZM204.105 24.996L204.161 25.0527L204.105 24.996ZM98.3285 25.0527L98.3849 25.1094L98.3285 25.0527ZM125.633 25.3928L125.689 25.4495L125.633 25.3928ZM204.613 25.3928L204.669 25.4495L204.613 25.3928ZM108.765 25.5628L108.821 25.6195L108.765 25.5628ZM125.52 25.5628L125.576 25.6195L125.52 25.5628ZM161.174 25.5628L161.23 25.6195L161.174 25.5628ZM199.197 25.7329L199.253 25.7895L199.197 25.7329Z" fill="#010101"/>
<path d="M130.994 25.7896V25.8462H131.389L130.994 25.7896Z" fill="#807F7C"/>
<path d="M137.199 33.8947C136.883 33.8947 136.462 33.8201 136.186 34.0021C135.695 34.3254 135.703 35.1452 136.241 35.4235C137.071 35.8531 138.198 35.2203 139.061 35.7652C139.005 35.4358 138.667 35.319 138.522 35.0283C138.218 34.4189 138.812 33.812 139.399 33.7813C137.364 31.5695 135.201 29.4505 133.081 27.3198C132.529 26.7653 131.478 25.1891 130.554 26.0385C129.73 26.7957 131.141 27.8076 131.614 28.2834L137.199 33.8947Z" fill="#3E6EA8"/>
<path d="M161.288 25.8462L161.344 25.9029L161.288 25.8462ZM120.444 25.9596L120.501 26.0162L120.444 25.9596ZM205.347 25.9596L205.404 26.0162L205.347 25.9596ZM108.372 26.0729L108.428 26.1296L108.372 26.0729ZM125.07 26.2996L125.127 26.3563L125.07 26.2996ZM91.9551 26.5264L92.0115 26.583L91.9551 26.5264Z" fill="#010101"/>
<path d="M151.978 26.7333C151.643 26.7906 150.867 27.2121 150.691 27.5086C150.513 27.8069 150.786 28.2355 151.132 28.1793C151.472 28.1239 152.186 27.7019 152.388 27.4213C152.616 27.1031 152.373 26.6657 151.978 26.7333ZM126.425 26.7962C126.182 26.8858 126.071 27.2029 126.231 27.4146C126.458 27.7149 127.332 28.2365 127.714 28.0792C127.97 27.9742 127.98 27.6472 127.809 27.4632C127.577 27.2146 126.774 26.6675 126.425 26.7962Z" fill="#3E6EA8"/>
<path d="M154.461 26.7529L154.518 26.8096L154.461 26.7529ZM124.788 26.8096L124.844 26.8663L124.788 26.8096ZM99.7399 26.8663L99.7963 26.923L99.7399 26.8663ZM154.518 26.8663L154.574 26.923L154.518 26.8663ZM161.682 26.923L161.739 26.9797L161.682 26.923ZM151.415 26.9797L151.472 27.0363L151.415 26.9797ZM154.574 26.9797L154.631 27.0363L154.574 26.9797ZM92.3496 27.0363L92.406 27.093L92.3496 27.0363ZM200.552 27.0363L200.608 27.093L200.552 27.0363ZM206.757 27.0363L206.814 27.093L206.757 27.0363ZM154.631 27.093L154.687 27.1497L154.631 27.093ZM161.795 27.2631L161.852 27.3197L161.795 27.2631ZM183.345 27.7165L183.402 27.7732L183.345 27.7165ZM119.71 27.7732L119.767 27.8299L119.71 27.7732ZM158.693 27.9999L158.749 28.0566L158.693 27.9999ZM162.021 27.9999L162.077 28.0566L162.021 27.9999Z" fill="#010101"/>
<path d="M127.383 28.1133V28.17H127.665L127.383 28.1133Z" fill="#727C86"/>
<path d="M201.905 28.3401L201.962 28.3968L201.905 28.3401ZM106.565 28.3968L106.622 28.4534L106.565 28.3968ZM119.484 28.4534L119.541 28.5101L119.484 28.4534ZM208.618 28.4534L208.675 28.5101L208.618 28.4534ZM123.038 28.6235L123.095 28.6802L123.038 28.6235ZM158.974 28.9069L159.03 28.9636L158.974 28.9069ZM162.302 29.0769L162.359 29.1336L162.302 29.0769ZM123.772 29.1336L123.828 29.1903L123.772 29.1336ZM94.1543 29.3603L94.2107 29.417L94.1543 29.3603ZM210.085 29.5871L210.142 29.6437L210.085 29.5871ZM203.259 29.6437L203.315 29.7004L203.259 29.6437ZM94.5492 29.8705L94.6056 29.9271L94.5492 29.8705ZM210.875 30.2105L210.931 30.2672L210.875 30.2105ZM211.439 30.664L211.495 30.7207L211.439 30.664ZM104.76 30.7207L104.817 30.7773L104.76 30.7207ZM123.264 30.834L123.32 30.8907L123.264 30.834ZM204.613 30.9474L204.669 31.0041L204.613 30.9474ZM104.365 31.2308L104.422 31.2875L104.365 31.2308ZM212.398 31.4575L212.455 31.5142L212.398 31.4575ZM123.095 31.5709L123.151 31.6275L123.095 31.5709ZM95.9595 31.6842L96.016 31.7409L95.9595 31.6842ZM123.038 31.8543L123.095 31.9109L123.038 31.8543ZM96.1288 32.1377L96.1852 32.1943L96.1288 32.1377ZM205.967 32.251L206.023 32.3077L205.967 32.251ZM122.079 32.5911L122.136 32.6478L122.079 32.5911ZM207.321 33.5547L207.377 33.6113L207.321 33.5547Z" fill="#010101"/>
<path d="M139.06 46.7612H139.624V36.8422C139.624 36.4929 139.493 36.0517 139.586 35.7145C139.659 35.4501 139.992 35.3351 140.114 35.085C140.395 34.5086 139.985 33.7842 139.342 33.7832C138.689 33.7822 138.289 34.4285 138.511 35.0284C138.617 35.3165 138.965 35.4299 139.042 35.7138C139.133 36.0503 139.06 36.4945 139.06 36.8422V39.1661V46.7612Z" fill="#F59E2F"/>
<path d="M139.737 33.8382C139.96 34.124 140.289 34.3953 140.2 34.8018C140.063 35.426 139.197 35.8396 139.802 36.5588C140.179 37.0074 140.717 37.6727 141.317 37.7795C141.863 37.8766 142.521 37.3957 142.298 36.7856C142.128 36.3196 141.492 35.885 141.148 35.5386H144.194C144.659 35.5386 145.205 35.6177 145.661 35.5228C146.348 35.3796 146.412 34.5138 145.981 34.0777C145.585 33.6777 144.762 33.8382 144.25 33.8382H139.737Z" fill="#3E6EA8"/>
<path d="M94.7188 33.9514L94.7752 34.0081L94.7188 33.9514ZM159.764 34.0081L159.821 34.0648L159.764 34.0081ZM121.967 34.0648L122.023 34.1215L121.967 34.0648ZM122.757 34.0648L122.813 34.1215L122.757 34.0648ZM146.056 34.1781L146.112 34.2348L146.056 34.1781Z" fill="#010101"/>
<path d="M124.34 34.3496C124.032 34.5174 124.033 34.9098 124.34 35.0747C124.621 35.2254 125.625 35.2471 125.898 35.0747C126.153 34.9135 126.124 34.459 125.849 34.3334C125.562 34.2026 124.618 34.199 124.34 34.3496ZM152.72 34.3496C152.417 34.5212 152.474 34.9564 152.776 35.0929C153.065 35.2236 154.009 35.2406 154.287 35.0833C154.557 34.9308 154.601 34.4563 154.287 34.3255C153.992 34.2025 152.999 34.1918 152.72 34.3496Z" fill="#3E6EA8"/>
<path d="M94.3242 34.4614L94.3806 34.5181L94.3242 34.4614Z" fill="#010101"/>
<path d="M140.189 34.5181V34.8015H140.246L140.189 34.5181Z" fill="#96856E"/>
<path d="M135.807 34.6128L135.825 34.6499L135.807 34.6128Z" fill="#9D876B"/>
<path d="M0 34.8584V38.5426H20.027V34.8584H0Z" fill="white"/>
<path d="M20.0273 34.8584V38.5426H20.0838V36.0487L20.0273 34.8584Z" fill="#3A568F"/>
<path d="M138.459 34.896L138.478 34.9331L138.459 34.896Z" fill="#898277"/>
<path d="M125.972 34.9717L126.029 35.0284L125.972 34.9717ZM152.656 35.0284L152.712 35.085L152.656 35.0284ZM184.079 35.1984L184.135 35.2551L184.079 35.1984ZM121.967 35.2551L122.023 35.3118L121.967 35.2551ZM159.764 35.3118L159.821 35.3684L159.764 35.3118Z" fill="#010101"/>
<path d="M139.568 35.5386V36.2754H139.625L139.568 35.5386Z" fill="#BB8F55"/>
<path d="M92.915 36.2754L92.9714 36.3321L92.915 36.2754ZM162.925 36.3321L162.981 36.3888L162.925 36.3321ZM222.836 36.6722L222.893 36.7288L222.836 36.6722ZM92.5201 36.7855L92.5765 36.8422L92.5201 36.7855ZM100.023 36.8989L100.08 36.9556L100.023 36.8989ZM224.021 37.3523L224.078 37.409L224.021 37.3523ZM100.418 37.409L100.474 37.4657L100.418 37.409ZM118.753 37.579L118.809 37.6357L118.753 37.579ZM141.939 37.6357L141.995 37.6924L141.939 37.6357ZM99.2898 37.7491L99.3462 37.8058L99.2898 37.7491ZM155.929 38.5426L155.986 38.5993L155.929 38.5426ZM91.1097 38.5993L91.1662 38.656L91.1097 38.5993ZM118.922 38.5993L118.978 38.656L118.922 38.5993ZM227.575 38.9394L227.632 38.996L227.575 38.9394ZM90.7148 39.1094L90.7713 39.1661L90.7148 39.1094ZM97.8794 39.5628L97.9358 39.6195L97.8794 39.5628Z" fill="#010101"/>
<path d="M77.513 39.9291C76.4101 40.129 75.9926 41.6212 76.735 42.4509C77.1113 42.8712 77.7195 42.9337 78.2464 42.8325C79.2133 42.6468 79.5918 41.3313 79.0931 40.5263C78.7631 39.9945 78.0991 39.8229 77.513 39.9291Z" fill="white"/>
<path d="M228.363 39.9028L228.42 39.9595L228.363 39.9028Z" fill="#010101"/>
<path d="M1.41086 39.9596C1.41086 40.6219 1.21169 41.6783 1.49957 42.2835C1.86128 43.0438 3.21891 43.102 3.66773 42.396C4.05254 41.7906 3.83667 40.6534 3.83667 39.9596H3.27253C3.27253 40.5415 3.46129 41.5298 3.19818 42.0559C2.98194 42.4883 2.33522 42.5102 2.07329 42.111C1.76264 41.6375 1.975 40.5159 1.975 39.9596H1.41086ZM4.45722 39.9596V42.8503H5.02136C5.02136 42.5563 5.01605 41.4278 5.63007 41.6667C6.02959 41.8221 6.11179 42.5539 6.46607 42.7921C6.63125 42.9031 6.91913 42.8503 7.10868 42.8503L6.33767 41.66L6.08352 41.0932L7.05226 39.9596C6.12155 39.9596 5.64936 40.7457 5.02136 41.3766V39.9596H4.45722ZM7.55999 39.9596V42.8503H8.12413V41.7167C8.35678 41.7167 8.74694 41.6416 8.93441 41.8076C9.45037 42.2645 9.20452 42.8502 10.0422 42.8503L9.47807 41.66C10.0816 41.3444 10.2238 40.3814 9.53442 40.0488C9.00915 39.7952 8.13321 39.9596 7.55999 39.9596ZM10.3807 42.8503H10.9448C11.0832 42.2515 11.8363 42.0667 12.3989 42.3177C12.6027 42.4086 12.5703 42.6694 12.7333 42.7921C12.876 42.8995 13.1462 42.8503 13.3142 42.8503C13.0822 42.1613 12.7966 41.4881 12.5351 40.8098C12.4491 40.5866 12.3625 40.1595 12.1578 40.0179C11.9851 39.8984 11.548 39.915 11.4197 40.091C11.245 40.3304 11.167 40.7043 11.0577 40.9799C10.8231 41.5708 10.4746 42.2207 10.3807 42.8503ZM13.6527 39.9596V42.8503H14.2168V39.9596H13.6527ZM14.8374 39.9596V42.8503H15.4015V40.9232H15.458C15.8073 41.6652 16.4486 42.8502 17.3196 42.8503V39.9596H16.7555V41.8301C16.2197 41.1316 15.8051 39.9597 14.8374 39.9596Z" fill="white"/>
<path d="M15.4004 39.9595L15.4568 40.0162L15.4004 39.9595Z" fill="#010101"/>
<path d="M17.9395 39.9595V42.8502H20.196V42.34H18.5036V41.6032H19.9704V41.1498H18.5036V40.4129H20.1396V39.9595H17.9395ZM73.7893 39.9595V40.4129H74.692V42.8502H75.2561V40.4129H76.1587V39.9595H73.7893ZM79.5436 39.9595C79.8172 40.672 80.053 41.399 80.3227 42.1133C80.4016 42.3233 80.4586 42.7152 80.6843 42.816C80.8507 42.89 81.1519 42.8805 81.2608 42.7188C81.724 42.0303 82.0608 40.7677 82.2514 39.9595C81.3251 39.9596 81.1722 41.3977 80.9539 42.17L80.3898 40.6396L80.1246 40.0177L79.5436 39.9595Z" fill="white"/>
<path d="M78.5279 40.0161L78.5843 40.0728L78.5279 40.0161ZM78.6407 40.0728L78.6971 40.1295L78.6407 40.0728ZM6.20508 40.1295L6.26149 40.1862L6.20508 40.1295ZM79.5997 40.1295L79.6561 40.1862L79.5997 40.1295ZM81.5742 40.1862L81.6306 40.2428L81.5742 40.1862ZM102.56 40.1862L102.617 40.2428L102.56 40.1862ZM78.8663 40.2428L78.9228 40.2995L78.8663 40.2428ZM78.9228 40.2995L78.9792 40.3562L78.9228 40.2995ZM228.533 40.2995L228.589 40.3562L228.533 40.2995Z" fill="#010101"/>
<path d="M77.6815 40.383C76.4996 40.5933 76.802 42.5866 78.0764 42.3846C79.1274 42.2181 78.8594 40.1734 77.6815 40.383Z" fill="#3E6EA8"/>
<path d="M81.5176 40.3562L81.574 40.4129L81.5176 40.3562Z" fill="#010101"/>
<path d="M8.12305 40.413V41.2632C8.43214 41.2632 8.97044 41.3671 9.24298 41.2049C9.48296 41.0621 9.47518 40.6293 9.23846 40.4877C8.95357 40.3174 8.44337 40.413 8.12305 40.413Z" fill="#3E6EA8"/>
<path d="M9.13867 40.4131L9.19509 40.4698L9.13867 40.4131Z" fill="#010101"/>
<path d="M11.7912 40.4131L11.3398 41.8301H12.2989L11.7912 40.4131Z" fill="#3E6EA8"/>
<path d="M9.36523 40.583L9.42165 40.6397L9.36523 40.583ZM102.956 40.6964L103.013 40.7531L102.956 40.6964Z" fill="#010101"/>
<path d="M222.948 40.753C222.948 41.6736 222.78 43.0616 223.103 43.9271C223.213 44.2242 223.497 44.4806 223.696 44.7206C223.866 44.9254 224.058 45.2624 224.312 45.3666C224.728 45.5371 225.435 45.4008 225.882 45.4008C225.833 44.2501 225.89 42.992 225.524 41.8866C225.413 41.552 225.236 40.9972 224.912 40.8113C224.469 40.557 223.455 40.753 222.948 40.753Z" fill="white"/>
<path d="M11.9608 40.8665L12.0172 40.9231L11.9608 40.8665ZM6.09375 40.9231L6.15016 40.9798L6.09375 40.9231ZM89.3045 40.9231L89.3609 40.9798L89.3045 40.9231ZM80.5039 41.0365L80.5603 41.0932L80.5039 41.0365ZM119.542 41.0365L119.599 41.0932L119.542 41.0365ZM9.9299 41.1499L9.98632 41.2065L9.9299 41.1499ZM12.6378 41.1499L12.6942 41.2065L12.6378 41.1499ZM15.5713 41.1499L15.6277 41.2065L15.5713 41.1499Z" fill="#010101"/>
<path d="M150.965 41.195C150.687 41.2838 150.528 41.6714 150.723 41.9087C150.97 42.2076 151.864 42.748 152.255 42.5814C152.503 42.4755 152.528 42.1542 152.389 41.9493C152.204 41.6776 151.299 41.0879 150.965 41.195Z" fill="#3E6EA8"/>
<path d="M103.352 41.2065L103.408 41.2632L103.352 41.2065Z" fill="#010101"/>
<path d="M127.326 41.2526C127.013 41.3619 126.375 41.6704 126.2 41.9619C125.997 42.3 126.335 42.74 126.706 42.6213C127.04 42.5146 127.697 42.1662 127.898 41.8747C128.194 41.4465 127.735 41.1104 127.326 41.2526Z" fill="#3E6EA8"/>
<path d="M151.247 41.2065L151.303 41.2632L151.247 41.2065ZM225.205 41.2065L225.262 41.2632L225.205 41.2065ZM123.265 41.2632L123.322 41.3199L123.265 41.2632ZM127.214 41.2632L127.271 41.3199L127.214 41.2632ZM16.3606 41.3199L16.417 41.3766L16.3606 41.3199ZM79.2622 41.3766L79.3186 41.4333L79.2622 41.3766ZM96.4685 41.3766L96.5249 41.4333L96.4685 41.3766ZM88.909 41.4333L88.9654 41.4899L88.909 41.4333ZM6.20606 41.4899L6.26247 41.5466L6.20606 41.4899ZM10.832 41.4899L10.8884 41.5466L10.832 41.4899ZM76.9492 41.6033L77.0057 41.66L76.9492 41.6033ZM81.6316 41.6033L81.688 41.66L81.6316 41.6033ZM5.69833 41.66L5.75475 41.7167L5.69833 41.66ZM6.31889 41.66L6.3753 41.7167L6.31889 41.66ZM123.434 41.66L123.491 41.7167L123.434 41.66ZM6.43172 41.83L6.48813 41.8867L6.43172 41.83ZM126.255 41.83L126.312 41.8867L126.255 41.83ZM80.7854 41.8867L80.8418 41.9434L80.7854 41.8867ZM6.54454 42.0001L6.60096 42.0567L6.54454 42.0001ZM6.65737 42.1701L6.71379 42.2268L6.65737 42.1701ZM80.3341 42.1701L80.3905 42.2268L80.3341 42.1701ZM127.214 42.2835L127.271 42.3401L127.214 42.2835ZM6.7702 42.3401L6.82661 42.3968L6.7702 42.3401ZM11.0577 42.3401L11.1141 42.3968L11.0577 42.3401ZM13.145 42.4535L13.2014 42.5102L13.145 42.4535ZM126.199 42.4535L126.255 42.5102L126.199 42.4535ZM6.88303 42.5102L6.93944 42.5669L6.88303 42.5102ZM6.31889 42.6235L6.3753 42.6802L6.31889 42.6235ZM16.6427 42.6802L16.6991 42.7369L16.6427 42.6802ZM95.453 42.6802L95.5095 42.7369L95.453 42.6802ZM9.42166 42.7369L9.47807 42.7936L9.42166 42.7369ZM78.4724 42.7369L78.5288 42.7936L78.4724 42.7369ZM161.627 42.7369L161.683 42.7936L161.627 42.7369ZM3.04688 42.7936L3.10329 42.8503L3.04688 42.7936ZM10.3243 42.7936L10.3807 42.8503L10.3243 42.7936ZM80.5597 42.7936L80.6162 42.8503L80.5597 42.7936ZM77.739 42.8503L77.7955 42.9069L77.739 42.8503ZM77.9083 42.8503L77.9647 42.9069L77.9083 42.8503ZM120.219 42.8503L120.275 42.9069L120.219 42.8503ZM95.0582 43.1903L95.1146 43.247L95.0582 43.1903ZM87.4987 43.247L87.5551 43.3037L87.4987 43.247ZM225.769 43.6438L225.826 43.7005L225.769 43.6438ZM87.1038 43.7572L87.1602 43.8138L87.1038 43.7572ZM153.785 43.7572L153.842 43.8138L153.785 43.7572ZM223.062 43.9272L223.118 43.9839L223.062 43.9272ZM105.495 43.9839L105.551 44.0406L105.495 43.9839ZM120.952 44.3806L121.009 44.4373L120.952 44.3806ZM105.89 44.494L105.946 44.5507L105.89 44.494ZM113.449 44.5507L113.506 44.6074L113.449 44.5507ZM228.985 44.8341L229.041 44.8908L228.985 44.8341ZM152.939 45.0041L152.995 45.0608L152.939 45.0041ZM113.844 45.0608L113.9 45.1175L113.844 45.0608ZM225.826 45.0608L225.882 45.1175L225.826 45.0608ZM205.517 45.2875L205.573 45.3442L205.517 45.2875ZM156.832 45.3442L156.888 45.4009L156.832 45.3442ZM196.716 45.3442L196.773 45.4009L196.716 45.3442ZM114.239 45.5709L114.295 45.6276L114.239 45.5709ZM206.645 45.8543L206.702 45.911L206.645 45.8543ZM206.927 46.0244L206.984 46.081L206.927 46.0244ZM114.634 46.081L114.69 46.1377L114.634 46.081ZM126.312 46.1377L126.368 46.1944L126.312 46.1377Z" fill="#010101"/>
<path d="M132.406 46.1821C132.07 46.301 131.598 47.209 131.575 47.5548C131.553 47.895 131.86 48.0997 132.173 47.974C132.486 47.8484 132.959 46.9775 132.996 46.6479C133.03 46.3454 132.693 46.081 132.406 46.1821ZM145.945 46.1807C145.186 46.4565 146.203 48.2358 146.84 47.974C147.469 47.7152 146.509 45.9754 145.945 46.1807Z" fill="#3E6EA8"/>
<path d="M151.811 46.3643L151.867 46.4209L151.811 46.3643ZM156.098 46.4776L156.154 46.5343L156.098 46.4776ZM207.604 46.4776L207.66 46.5343L207.604 46.4776ZM115.029 46.591L115.085 46.6477L115.029 46.591ZM159.821 46.6477L159.878 46.7043L159.821 46.6477ZM155.816 46.8744L155.872 46.9311L155.816 46.8744ZM159.652 46.9311L159.708 46.9877L159.652 46.9311ZM229.323 47.0444L229.38 47.1011L229.323 47.0444ZM115.423 47.1011L115.48 47.1578L115.423 47.1011ZM108.033 47.2711L108.09 47.3278L108.033 47.2711ZM193.783 47.2711L193.839 47.3278L193.783 47.2711ZM155.477 47.3278L155.534 47.3845L155.477 47.3278ZM115.818 47.6112L115.875 47.6679L115.818 47.6112ZM131.558 47.7246L131.614 47.7813L131.558 47.7246ZM108.428 47.7813L108.485 47.8379L108.428 47.7813ZM155.026 47.8946L155.083 47.9513L155.026 47.8946Z" fill="#010101"/>
<path d="M139.174 47.996C138.682 48.1612 138.641 50.2152 139.453 49.9547C139.976 49.7865 139.912 47.7482 139.174 47.996Z" fill="#3E6EA8"/>
<path d="M139.399 47.9514L139.455 48.0081L139.399 47.9514ZM131.952 48.0081L132.009 48.0648L131.952 48.0081ZM193.049 48.0081L193.105 48.0648L193.049 48.0081ZM139.568 48.0648L139.625 48.1215L139.568 48.0648ZM116.213 48.1215L116.269 48.1781L116.213 48.1215ZM123.49 48.1215L123.547 48.1781L123.49 48.1215ZM128.455 48.1781L128.511 48.2348L128.455 48.1781Z" fill="#010101"/>
<path d="M193.838 55.3198H196.038C196.3 55.3198 196.74 55.404 196.979 55.2856C197.192 55.1806 197.208 54.5207 197.284 54.2996C197.504 53.6537 197.895 53.0192 198.408 52.5668C201.029 50.2548 204.914 51.902 205.346 55.3198H208.618C208.379 52.2677 206.603 49.5908 203.654 48.5576C199.109 46.9651 193.838 50.3688 193.838 55.3198Z" fill="#3E6EA8"/>
<path d="M209.465 48.1782L209.521 48.2349L209.465 48.1782ZM108.822 48.2916L108.879 48.3483L108.822 48.2916ZM123.885 48.575L123.941 48.6317L123.885 48.575ZM158.579 48.575L158.636 48.6317L158.579 48.575ZM116.607 48.6317L116.664 48.6883L116.607 48.6317ZM198.351 48.6883L198.408 48.745L198.351 48.6883ZM204.388 48.8584L204.444 48.9151L204.388 48.8584ZM154.123 48.9151L154.179 48.9717L154.123 48.9151ZM204.5 48.9151L204.557 48.9717L204.5 48.9151ZM129.526 48.9717L129.583 49.0284L129.526 48.9717ZM204.613 48.9717L204.67 49.0284L204.613 48.9717ZM129.695 49.0851L129.752 49.1418L129.695 49.0851ZM117.002 49.1418L117.059 49.1985L117.002 49.1418ZM192.146 49.1418L192.202 49.1985L192.146 49.1418ZM210.255 49.1985L210.311 49.2551L210.255 49.1985ZM148.368 49.2551L148.425 49.3118L148.368 49.2551ZM197.167 49.3118L197.223 49.3685L197.167 49.3118Z" fill="#010101"/>
<path d="M90.7704 49.4056C89.9253 49.6729 90.2791 50.972 91.1653 50.6301C91.9461 50.3289 91.6166 49.1379 90.7704 49.4056Z" fill="#3E6EA8"/>
<path d="M210.369 49.3684L210.425 49.4251L210.369 49.3684ZM196.999 49.4251L197.055 49.4818L196.999 49.4251ZM117.398 49.6518L117.455 49.7085L117.398 49.6518ZM153.334 49.7085L153.391 49.7652L153.334 49.7085Z" fill="#010101"/>
<path d="M39.1503 49.7651L38.9247 50.5587C39.7573 50.5759 40.1376 50.8309 40.335 51.6356C38.6362 50.5252 37.3837 53.7026 38.9247 54.5513C39.5891 54.9173 40.5437 54.6764 40.976 54.0728C41.5797 53.23 41.7818 51.2354 41.1028 50.3895C40.6233 49.7922 39.8475 49.7651 39.1503 49.7651Z" fill="#3E6EA8"/>
<path d="M206.025 49.9353L206.082 49.992L206.025 49.9353ZM125.297 49.992L125.353 50.0487L125.297 49.992Z" fill="#010101"/>
<path d="M0.790703 50.1619L0.226562 54.5829H2.82161L2.93444 53.7327L1.5805 53.676L1.69333 52.7692H2.82161L2.93444 51.919L1.86257 51.8623L1.91898 51.0687L3.12831 51.0105L3.44216 50.1619H0.790703Z" fill="#F59E2F"/>
<path d="M117.793 50.1619L117.849 50.2185L117.793 50.1619ZM210.876 50.2185L210.933 50.2752L210.876 50.2185ZM152.713 50.2752L152.77 50.3319L152.713 50.2752ZM132.291 50.5019L132.348 50.5586L132.291 50.5019ZM195.701 50.5586L195.757 50.6153L195.701 50.5586ZM145.774 50.6153L145.831 50.672L145.774 50.6153ZM118.188 50.672L118.244 50.7287L118.188 50.672ZM152.036 50.842L152.093 50.8987L152.036 50.842Z" fill="#010101"/>
<path d="M13.5965 51.4089C13.5351 51.0391 12.6054 50.9541 12.4839 51.3039C12.3012 51.8305 12.3118 52.5003 12.2352 53.0526C12.1005 54.024 11.8895 55.0202 11.8477 56L12.9905 55.8525L13.2016 54.6397C14.862 55.1328 15.8082 52.9203 15.2617 51.5789C14.9523 50.8196 14.1069 50.9762 13.5965 51.4089Z" fill="#F59E2F"/>
<path d="M50.997 51.0365C48.9348 51.3094 48.6663 55.0419 51.1099 54.6792C52.9343 54.4083 53.1991 50.7452 50.997 51.0365ZM54.1562 51.4088C54.0948 51.0389 53.1651 50.954 53.0437 51.3038C52.8609 51.8304 52.8715 52.5002 52.795 53.0525C52.6602 54.0239 52.4493 55.02 52.4074 55.9999L53.5502 55.8523L53.7613 54.6396C55.4218 55.1327 56.3679 52.9202 55.8214 51.5788C55.512 50.8195 54.6666 50.976 54.1562 51.4088ZM67.5828 54.6962C67.7424 54.1398 67.7424 53.7345 67.8237 53.1659C67.893 52.6837 68.0916 52.065 68.0251 51.5813C67.9523 51.057 66.8488 50.9837 66.4545 51.0455C65.2771 51.2298 64.8179 52.3004 64.8185 53.3926C64.8185 53.8983 64.9037 54.4768 65.439 54.6878C65.9829 54.9022 66.2204 54.4148 66.6801 54.4143C66.969 54.4139 67.2499 54.6891 67.5828 54.6962ZM74.5781 51.0365C72.5162 51.3094 72.2476 55.0419 74.6909 54.6792C76.5154 54.4083 76.78 50.7452 74.5781 51.0365ZM86.0866 54.6962C86.2462 54.1398 86.2462 53.7345 86.3275 53.1659C86.3969 52.6837 86.5954 52.065 86.5289 51.5813C86.4561 51.057 85.3526 50.9837 84.9583 51.0455C83.7809 51.2298 83.3217 52.3004 83.3223 53.3926C83.3223 53.8983 83.4075 54.4768 83.9428 54.6878C84.4867 54.9022 84.7242 54.4148 85.184 54.4143C85.4728 54.4139 85.7537 54.6891 86.0866 54.6962Z" fill="#3E6EA8"/>
<path d="M207.039 51.0122L207.095 51.0689L207.039 51.0122ZM229.718 51.0122L229.774 51.0689L229.718 51.0122Z" fill="#010101"/>
<path d="M4.51341 52.4859L4.68266 51.1822H3.44155L2.99023 54.583H4.23134L4.40059 53.166H4.56983C4.583 53.4696 4.64525 54.3268 4.89355 54.5248C5.11771 54.7035 5.75909 54.583 6.03659 54.583C5.91829 53.7005 5.18305 52.5123 6.31866 51.9757C6.3076 51.8397 6.28825 51.7113 6.25345 51.5789C5.88162 50.1636 4.88601 52.1757 4.51341 52.4859ZM8.74446 54.3563L8.34957 53.5628C8.18309 53.6314 7.97329 53.7692 7.7865 53.7288C7.1264 53.5862 7.48829 51.5005 8.51881 52.2025H8.57522L9.13936 51.579C7.60761 49.4456 4.72408 53.5338 6.93922 54.5876C7.18907 54.7064 7.45901 54.6995 7.72901 54.6962C8.11855 54.6914 8.40739 54.5345 8.74446 54.3563ZM17.8835 53.5061C17.4557 53.7058 16.9139 54.0208 16.6988 53.3927C17.2455 53.349 17.9906 53.1918 18.3721 52.7633C18.8701 52.204 18.6186 51.275 17.8835 51.099C16.6276 50.7984 15.7092 51.6868 15.5383 52.8826C15.4615 53.4198 15.5096 54.0769 15.9679 54.438C16.3868 54.7681 17.9772 54.92 18.1983 54.231C18.2677 54.0147 17.9801 53.6884 17.8835 53.5061ZM21.0991 54.3563L20.7042 53.5628C20.5378 53.6314 20.328 53.7692 20.1412 53.7288C19.4811 53.5862 19.843 51.5005 20.8735 52.2025H20.9299L21.494 51.579C19.9623 49.4456 17.0787 53.5338 19.2939 54.5876C19.5437 54.7064 19.8137 54.6995 20.0837 54.6962C20.4732 54.6914 20.7621 54.5345 21.0991 54.3563Z" fill="#F59E2F"/>
<path d="M25.3867 53.5061C24.9589 53.7058 24.4171 54.0208 24.202 53.3927C24.7487 53.349 25.4937 53.1918 25.8753 52.7633C26.3733 52.204 26.1217 51.275 25.3867 51.099C24.1308 50.7984 23.2124 51.6868 23.0415 52.8826C22.9647 53.4198 23.0128 54.0769 23.4711 54.438C23.89 54.7681 25.4804 54.92 25.7015 54.231C25.7708 54.0147 25.4833 53.6884 25.3867 53.5061ZM27.5305 52.4859L27.6997 51.1822H26.4586L26.0073 54.583H27.2484L27.4176 53.166H27.5869C27.6001 53.4696 27.6623 54.3268 27.9106 54.5248C28.1348 54.7035 28.7761 54.583 29.0536 54.583C28.9353 53.7005 28.2001 52.5123 29.3357 51.9757C29.3247 51.8398 29.3053 51.7113 29.2705 51.5789C28.8987 50.1636 27.9031 52.1757 27.5305 52.4859ZM31.8179 54.3563L31.423 53.5628C31.2565 53.6314 31.0467 53.7692 30.8599 53.7288C30.1999 53.5862 30.5618 51.5005 31.5923 52.2025H31.6487L32.2128 51.579C30.6811 49.4456 27.7975 53.5338 30.0127 54.5876C30.2625 54.7064 30.5325 54.6995 30.8025 54.6962C31.192 54.6914 31.4809 54.5345 31.8179 54.3563ZM37.5722 53.5061C37.1443 53.7058 36.6025 54.0208 36.3875 53.3927C36.9341 53.349 37.6792 53.1918 38.0607 52.7633C38.5587 52.204 38.3072 51.275 37.5722 51.099C36.3162 50.7984 35.3978 51.6868 35.2269 52.8826C35.1501 53.4198 35.1982 54.0769 35.6565 54.438C36.0754 54.7681 37.6658 54.92 37.8869 54.231C37.9563 54.0147 37.6687 53.6884 37.5722 53.5061ZM46.1471 51.579V51.1822H45.0752L44.6239 54.583H45.865C45.8981 53.8097 45.958 52.6837 46.4856 52.0891L46.2035 54.583H47.3882C47.5397 53.7639 47.4592 52.7628 48.0088 52.0891L47.7267 54.583C48.0065 54.583 48.6506 54.7039 48.8774 54.5248C49.085 54.3608 49.0601 53.6988 49.0959 53.4494C49.1749 52.8983 49.3916 52.1857 49.2793 51.6357C49.1688 51.0948 48.5793 50.9102 48.1217 51.1827C47.9716 51.272 47.8503 51.401 47.7267 51.5223C47.3304 50.7618 46.6164 51.1117 46.1471 51.579ZM58.5582 54.3563L58.1633 53.5628C57.9969 53.6314 57.787 53.7692 57.6003 53.7288C56.9402 53.5862 57.3018 51.5005 58.3325 52.2025H58.3889L58.9531 51.579C57.4214 49.4456 54.5378 53.5338 56.7529 54.5876C57.0028 54.7064 57.2725 54.6995 57.5427 54.6962C57.932 54.6914 58.2214 54.5345 58.5582 54.3563ZM63.1277 52.4859L63.297 51.1822H62.0558L61.6045 54.583H62.8456L63.0149 53.166H63.1841C63.1971 53.4696 63.2597 54.3268 63.5079 54.5248C63.7319 54.7035 64.3733 54.583 64.6509 54.583C64.5324 53.7005 63.7973 52.5123 64.933 51.9757C64.9217 51.8397 64.9025 51.7113 64.8675 51.5789C64.4958 50.1636 63.5 52.1757 63.1277 52.4859ZM71.2513 52.4859L71.4206 51.1822H70.1795L69.7282 54.583H70.9693L71.1385 53.166H71.3077C71.3207 53.4696 71.3833 54.3268 71.6316 54.5248C71.8555 54.7035 72.497 54.583 72.7745 54.583C72.656 53.7005 71.921 52.5123 73.0566 51.9757C73.0453 51.8397 73.0261 51.7113 72.9911 51.5789C72.6194 50.1636 71.6237 52.1757 71.2513 52.4859ZM91.8989 53.166V53.2227L90.9962 54.583L92.3141 54.5248L93.0271 53.4494L92.8579 54.583H94.099L94.5503 51.1822C93.8203 51.089 92.9324 50.895 92.2374 51.2341C91.5429 51.5729 91.2789 52.6319 91.8989 53.166Z" fill="#3E6EA8"/>
<path d="M110.967 51.0688L111.023 51.1255L110.967 51.0688ZM133.758 51.0688L133.814 51.1255L133.758 51.0688ZM191.075 51.0688L191.131 51.1255L191.075 51.0688Z" fill="#010101"/>
<path d="M86.9337 51.1255L86.4824 54.583H87.7235C87.7461 54.0605 87.6998 53.287 88.3441 53.2793L88.1748 54.583H89.3595L89.8108 51.1255L88.6679 51.1838L88.4569 52.3725H88.0056L88.1748 51.1255H86.9337Z" fill="#3E6EA8"/>
<path d="M126.648 51.1255L126.705 51.1822L126.648 51.1255Z" fill="#010101"/>
<path d="M8.80078 54.6396H10.0419L10.2602 52.9392L10.3905 52.2204L10.7753 52.089L10.4368 54.6396L11.5875 54.5813L11.782 53.6761L12.1292 51.2388L9.98548 51.1821L9.30986 51.273L9.13193 52.2591L8.80078 54.6396Z" fill="#F59E2F"/>
<path d="M31.875 54.6397H33.1161L33.3344 52.9393L33.4647 52.2205L33.8495 52.0891L33.511 54.6397L34.6617 54.5815L34.8562 53.6762L35.2034 51.2389L33.0597 51.1822L32.3841 51.2731L32.2062 52.2592L31.875 54.6397ZM41.9167 51.1822C41.8013 52.0991 41.4458 53.2098 41.5903 54.1296C41.735 55.0513 42.7793 54.6572 43.2142 54.243V54.583L44.1957 54.5248L44.3752 53.6762L44.681 51.1822H43.4963C43.44 51.8981 43.4483 53.1942 42.8757 53.6762L43.1014 51.1822H41.9167ZM59.0666 51.1822L58.6717 54.5264C59.4287 54.6833 60.4278 54.9244 61.0952 54.3829C61.6272 53.9509 61.7688 52.9131 61.208 52.4515C60.9175 52.2127 60.5514 52.2027 60.1948 52.2025L60.3077 51.1822H59.0666ZM76.7242 51.1822L76.0472 54.583C76.305 54.583 76.8748 54.6909 77.0852 54.5248C77.3712 54.2987 77.3447 53.1727 77.3447 52.826H77.4011L77.4575 54.243C77.7052 54.243 78.1108 54.3215 78.3359 54.2088C78.6033 54.0746 78.7144 53.2715 78.7551 52.996H78.8115L78.6422 54.583H79.7705L79.9398 51.1822C79.6165 51.1822 78.8837 51.044 78.6174 51.2405C78.297 51.4776 78.1655 52.6132 78.1345 52.996H78.0781V51.1822H76.7242ZM79.9962 54.6397H81.2373L81.4556 52.9393L81.5859 52.2205L81.9707 52.0891L81.6322 54.6397L82.783 54.5815L82.9771 53.6762L83.3246 51.2389L81.1809 51.1822L80.505 51.2731L80.3273 52.2592L79.9962 54.6397ZM90.1507 51.1822L89.6994 54.583H90.9405L91.3918 51.1822H90.1507Z" fill="#3E6EA8"/>
<path d="M118.582 51.1821L118.639 51.2388L118.582 51.1821ZM156.436 51.1821L156.493 51.2388L156.436 51.1821ZM144.025 51.2388L144.081 51.2955L144.025 51.2388ZM151.528 51.2388L151.585 51.2955L151.528 51.2388ZM156.38 51.2388L156.436 51.2955L156.38 51.2388ZM134.491 51.2955L134.547 51.3522L134.491 51.2955ZM201.285 51.4089L201.342 51.4655L201.285 51.4089ZM143.179 51.4655L143.235 51.5222L143.179 51.4655ZM111.361 51.5789L111.418 51.6356L111.361 51.5789ZM207.434 51.5789L207.491 51.6356L207.434 51.5789ZM190.849 51.6356L190.905 51.6923L190.849 51.6356ZM118.977 51.6923L119.034 51.7489L118.977 51.6923ZM136.24 51.6923L136.296 51.7489L136.24 51.6923Z" fill="#010101"/>
<path d="M93.1408 52.7692L93.1972 51.8057C92.7588 51.9592 92.5986 52.6556 93.1408 52.7692Z" fill="white"/>
<path d="M150.738 51.8057L150.795 51.8623L150.738 51.8057ZM199.424 51.8057L199.48 51.8623L199.424 51.8057Z" fill="#010101"/>
<path d="M16.7559 52.6559C16.8932 52.6487 17.0241 52.6404 17.1485 52.5733C17.7181 52.266 17.2161 51.5314 16.8952 52.2592C16.8388 52.387 16.799 52.5232 16.7559 52.6559ZM24.259 52.6559C24.3963 52.6487 24.5271 52.6404 24.6515 52.5733C25.2211 52.266 24.7192 51.5314 24.3982 52.2592C24.3419 52.387 24.302 52.5232 24.259 52.6559ZM36.4444 52.6559C36.5817 52.6487 36.7126 52.6404 36.837 52.5733C37.4066 52.266 36.9046 51.5313 36.5837 52.2592C36.5273 52.387 36.4875 52.5232 36.4444 52.6559ZM13.3711 53.7895C13.9964 53.7742 14.4492 52.5783 14.0865 52.0578C13.8218 51.678 13.5464 52.3491 13.5166 52.5425L13.4428 53.0526C13.4075 53.2988 13.3731 53.5405 13.3711 53.7895ZM51.0542 51.9741C50.5812 52.0797 50.6019 52.9743 50.6044 53.336C50.6057 53.5291 50.6085 53.8189 50.885 53.7681C51.3258 53.6872 51.3459 52.7148 51.3368 52.3725C51.3323 52.2018 51.2953 51.9202 51.0542 51.9741ZM53.9328 53.7895C54.5581 53.7742 55.0109 52.5783 54.6482 52.0578C54.3835 51.678 54.1081 52.3491 54.0783 52.5425L54.0045 53.0526C53.9692 53.2988 53.9348 53.5405 53.9328 53.7895ZM66.5684 51.969C66.0725 52.045 66.0567 52.9656 66.0342 53.336C66.0257 53.4791 66.0263 53.8095 66.2384 53.8035C66.7134 53.7903 66.7032 52.6973 66.7461 52.3725C66.7664 52.2172 66.8217 51.9302 66.5684 51.969ZM74.635 51.9741C74.1623 52.0797 74.1832 52.9743 74.1854 53.336C74.1866 53.5291 74.1894 53.8189 74.4664 53.7681C74.907 53.6872 74.9273 52.7148 74.9177 52.3725C74.9132 52.2018 74.8765 51.9202 74.635 51.9741ZM85.0722 51.969C84.5763 52.045 84.5605 52.9656 84.538 53.336C84.5295 53.4791 84.5301 53.8095 84.7422 53.8035C85.2172 53.7903 85.207 52.6973 85.2499 52.3725C85.2702 52.2172 85.3255 51.9302 85.0722 51.969Z" fill="white"/>
<path d="M150.568 51.9192L150.625 51.9759L150.568 51.9192Z" fill="#010101"/>
<path d="M39.8868 52.2575C39.428 52.3552 39.2857 53.8161 39.7732 53.7631C40.2493 53.7113 40.4384 52.14 39.8868 52.2575Z" fill="white"/>
<path d="M119.371 52.2024L119.428 52.2591L119.371 52.2024ZM211.721 52.2591L211.777 52.3158L211.721 52.2591ZM190.622 52.3158L190.678 52.3724L190.622 52.3158Z" fill="#010101"/>
<path d="M78.8281 52.8071L78.8469 52.8442L78.8281 52.8071Z" fill="white"/>
<path d="M198.125 52.7693L198.181 52.826L198.125 52.7693ZM228.137 52.7693L228.194 52.826L228.137 52.7693Z" fill="#010101"/>
<path d="M60.0816 52.9392L59.9688 53.9594C60.3907 53.8108 60.5679 53.1188 60.0816 52.9392Z" fill="white"/>
<path d="M154.519 52.9961L154.575 53.0528L154.519 52.9961ZM190.342 53.5062L190.398 53.5629L190.342 53.5062ZM194.065 53.5062L194.122 53.5629L194.065 53.5062ZM131.107 53.7329L131.163 53.7896L131.107 53.7329ZM193.952 53.9597L194.009 54.0163L193.952 53.9597ZM205.122 54.2997L205.179 54.3564L205.122 54.2997ZM113.506 54.3564L113.562 54.4131L113.506 54.3564ZM145.38 54.4131L145.436 54.4698L145.38 54.4131ZM144.816 54.5831L144.872 54.6398L144.816 54.5831ZM134.379 54.8099L134.435 54.8665L134.379 54.8099ZM197.111 54.8099L197.168 54.8665L197.111 54.8099ZM151.98 54.8665L152.037 54.9232L151.98 54.8665ZM134.887 54.9232L134.943 54.9799L134.887 54.9232ZM222.498 55.1499L222.554 55.2066L222.498 55.1499ZM141.262 55.2633L141.318 55.32L141.262 55.2633ZM137.764 55.32L137.82 55.3767L137.764 55.32ZM221.539 55.32L221.595 55.3767L221.539 55.32Z" fill="#010101"/>
<path d="M218.812 55.3955L218.85 55.4144L218.812 55.3955Z" fill="#010180"/>
</svg>
