<svg width="50" height="50" viewBox="0 0 50 50" fill="none" xmlns="http://www.w3.org/2000/svg">
<path d="M37.0334 30.4925L36.5192 33.4894C36.4722 33.7637 36.5849 34.0409 36.81 34.2044C37.035 34.368 37.3333 34.3896 37.5798 34.2601L40.2714 32.8451L42.9628 34.2601C43.0698 34.3163 43.1866 34.344 43.3028 34.344C43.4545 34.344 43.6053 34.2969 43.7326 34.2043C43.9577 34.0408 44.0705 33.7637 44.0233 33.4894L43.5094 30.4924L45.6868 28.3699C45.8861 28.1757 45.9577 27.8852 45.8717 27.6205C45.7858 27.3559 45.557 27.163 45.2817 27.123L42.2725 26.6857L40.9268 23.959C40.8036 23.7095 40.5495 23.5515 40.2712 23.5515C39.9929 23.5515 39.7388 23.7095 39.6156 23.959L38.2697 26.6857L35.2606 27.123C34.9854 27.163 34.7565 27.356 34.6706 27.6205C34.5846 27.8851 34.6563 28.1756 34.8554 28.3699L37.0334 30.4925ZM38.8606 28.0773C39.0986 28.0428 39.3045 27.8931 39.4109 27.6774L40.2714 25.9341L41.1316 27.6774C41.2382 27.8931 41.4439 28.0427 41.6819 28.0773L43.6057 28.3568L42.2136 29.7139C42.0413 29.8818 41.9628 30.1237 42.0035 30.3608L42.3321 32.2767L40.6115 31.3722C40.505 31.3162 40.3882 31.2883 40.2714 31.2883C40.1546 31.2883 40.0378 31.3162 39.9312 31.3722L38.2106 32.2767L38.5393 30.3609C38.58 30.1237 38.5014 29.8818 38.3291 29.7138L36.9371 28.3568L38.8606 28.0773Z" fill="black"/>
<path d="M6.23455 23.1681L5.72041 26.1649C5.67333 26.4392 5.7861 26.7164 6.01115 26.88C6.23621 27.0435 6.53456 27.0652 6.78096 26.9356L9.47255 25.5207L12.1639 26.9356C12.271 26.9918 12.3877 27.0195 12.504 27.0195C12.6557 27.0195 12.8065 26.9725 12.9337 26.8799C13.1589 26.7163 13.2717 26.4392 13.2245 26.1649L12.7105 23.168L14.888 21.0454C15.0872 20.8512 15.1589 20.5607 15.0729 20.2961C14.9869 20.0314 14.7582 19.8385 14.4828 19.7986L11.4737 19.3613L10.1279 16.6346C10.0047 16.385 9.75062 16.2271 9.47235 16.2271C9.19408 16.2271 8.93998 16.385 8.81678 16.6346L7.47084 19.3612L4.4618 19.7986C4.18655 19.8385 3.95769 20.0315 3.87172 20.2961C3.78576 20.5606 3.85749 20.8511 4.05662 21.0454L6.23455 23.1681ZM8.06179 20.7529C8.29981 20.7184 8.50566 20.5688 8.6121 20.353L9.47255 18.6098L10.3328 20.353C10.4393 20.5688 10.6451 20.7183 10.8831 20.7529L12.8068 21.0324L11.4148 22.3895C11.2425 22.5574 11.1639 22.7993 11.2047 23.0365L11.5332 24.9523L9.81271 24.0478C9.70618 23.9919 9.58941 23.9639 9.47255 23.9639C9.35578 23.9639 9.23892 23.9919 9.13238 24.0478L7.41177 24.9523L7.74044 23.0366C7.78118 22.7993 7.70252 22.5574 7.5303 22.3895L6.13825 21.0324L8.06179 20.7529Z" fill="black"/>
<path d="M20.7921 4.84944V5.73806C20.7921 7.82456 22.3089 9.56233 24.2974 9.9099V11.9603C22.506 12.252 21.0859 13.6608 20.7768 15.4462H19.7536C18.8108 15.4462 18.8108 16.9082 19.7536 16.9082H30.2486C31.1914 16.9082 31.1914 15.4462 30.2486 15.4462H29.1956C28.8913 13.689 27.5108 12.297 25.7595 11.9754V9.9098C27.7481 9.56233 29.2649 7.82447 29.2649 5.73796V4.84174C30.1981 4.7162 30.9399 4.34134 31.4748 3.72144C32.5571 2.46692 32.3096 0.698458 32.2986 0.623895C32.2454 0.265504 31.9378 0 31.5754 0H28.5338H28.4987H21.5232C21.5199 0 21.5167 0.000487342 21.5134 0.000487342C21.5101 0.000487342 21.507 0 21.5037 0H18.4269C18.0645 0 17.7569 0.265504 17.7038 0.623895C17.6928 0.698556 17.4453 2.46692 18.5276 3.72144C19.0728 4.35362 19.8328 4.7315 20.7921 4.84944ZM27.7009 15.4463H22.2713C22.594 14.2496 23.6888 13.3661 24.9862 13.3661C26.2834 13.3661 27.3783 14.2495 27.7009 15.4463ZM30.3676 2.76644C30.1097 3.06538 29.7401 3.26363 29.2648 3.35993V1.46203H30.8568C30.8224 1.86057 30.7059 2.37423 30.3676 2.76644ZM22.2541 1.46203H27.8028V4.07379C27.7995 4.10166 27.7974 4.12993 27.7974 4.15878C27.7974 4.18763 27.7994 4.2158 27.8028 4.24377V5.73806C27.8028 7.26773 26.5582 8.5123 25.0284 8.5123C23.4987 8.5123 22.2541 7.26773 22.2541 5.73806V1.46203ZM20.7921 1.46203V3.37007C20.2935 3.27884 19.907 3.07932 19.6397 2.77239C19.2975 2.37979 19.1801 1.86272 19.1455 1.46203H20.7921Z" fill="black"/>
<path d="M49.2216 48.5379H48.0926V38.9595C48.0926 37.9231 47.2497 37.08 46.2136 37.08H33.6355C33.4558 37.08 33.2824 37.1069 33.1177 37.1543V21.7208C33.1177 20.6844 32.275 19.8413 31.2391 19.8413H18.6611C17.6253 19.8413 16.7826 20.6844 16.7826 21.7208V29.4911C16.6483 29.4605 16.5092 29.4428 16.3658 29.4428H3.78781C2.75172 29.4428 1.90882 30.2857 1.90882 31.3219V37.0367C1.90882 37.9795 3.37084 37.9795 3.37084 37.0367V31.3219C3.37084 31.092 3.55788 30.9048 3.78781 30.9048H16.3657C16.5955 30.9048 16.7825 31.092 16.7825 31.3219V48.5379H3.37084V40.643C3.37084 39.7002 1.90882 39.7002 1.90882 40.643V48.5379H0.779841C0.376029 48.5379 0.0488281 48.8651 0.0488281 49.2689C0.0488281 49.6728 0.376029 50 0.779841 50H49.2216C49.6254 50 49.9526 49.6728 49.9526 49.2689C49.9526 48.8651 49.6253 48.5379 49.2216 48.5379ZM18.2445 48.5379V31.3219V21.7208C18.2445 21.4907 18.4314 21.3033 18.661 21.3033H31.2391C31.4687 21.3033 31.6557 21.4907 31.6557 21.7208V48.538H18.2445V48.5379ZM33.2189 48.5379V38.9595C33.2189 38.7294 33.4058 38.5421 33.6355 38.5421H46.2135C46.4435 38.5421 46.6305 38.7294 46.6305 38.9595V48.5379H33.2189Z" fill="black"/>
</svg>
