<svg width="38" height="50" viewBox="0 0 38 50" fill="none" xmlns="http://www.w3.org/2000/svg">
<path d="M27.0215 3.98793V0.720121C27.0215 0.322326 26.6991 0 26.3014 0H21.2996C20.9019 0 20.5795 0.322326 20.5795 0.720121V2.23391C20.0546 2.18955 19.5255 2.16545 18.9986 2.16545C8.52277 2.16545 0 10.9266 0 21.6955C0 24.618 0.612967 27.4294 1.822 30.0516C4.7816 36.4701 17.9554 48.4659 18.5148 48.9734C18.9026 49.3253 19.3251 49.1084 19.6652 48.8136C20.0738 48.4596 26.9377 41.8467 28.6074 40.1243C28.9622 39.7582 29.4761 39.2906 29.0717 38.7635C28.8082 38.4202 28.2854 38.3566 27.98 38.6809C24.5062 42.3705 20.3898 46.1903 19.0007 47.4636C16.5663 45.2099 5.65909 34.9335 3.13003 29.4485C2.00885 27.0168 1.44034 24.4083 1.44034 21.6955C1.44034 11.7207 9.31702 3.60569 18.9987 3.60569C19.5257 3.60569 20.0555 3.63018 20.5796 3.67828V5.30614H18.9437C18.546 5.30614 18.2236 5.62846 18.2236 6.02626V7.79075C16.3632 7.89665 14.577 8.37875 12.9109 9.22695C12.0834 9.64808 12.7328 10.9336 13.5644 10.5104C15.0268 9.7658 16.5928 9.33661 18.2236 9.23262V19.5832H16.2758V13.4112C16.2758 12.4825 14.8355 12.4825 14.8355 13.4112V19.5832H13.3241V16.4881C13.3241 15.5593 11.8838 15.5593 11.8838 16.4881V19.5832H9.33987C8.94217 19.5832 8.61975 19.9055 8.61975 20.3033V28.5774C7.42032 26.6263 6.72487 24.3159 6.72487 21.8412C6.72487 18.1905 8.25911 14.7192 10.9344 12.3174C11.6254 11.6969 10.6634 10.6253 9.97223 11.2457C6.99324 13.9203 5.28473 17.7823 5.28473 21.8413C5.28473 29.5626 11.3755 35.8507 18.8853 35.9137C18.8951 35.9141 18.9047 35.9151 18.9146 35.9151C18.9195 35.9151 18.9243 35.9144 18.9292 35.9143C18.9341 35.9144 18.9389 35.9151 18.9438 35.9151C18.9476 35.9151 18.9513 35.9146 18.9551 35.9145C18.9697 35.9145 18.9842 35.9151 18.9988 35.9151C26.5607 35.9151 32.7129 29.6016 32.7129 21.8413C32.7129 18.4915 31.547 15.2467 29.43 12.7045C29.4134 12.6845 29.3959 12.6659 29.3778 12.6482V7.09972C33.8304 10.462 36.5572 15.8515 36.5572 21.6955C36.5572 24.4084 35.9887 27.017 34.8675 29.4485C33.9728 31.389 32.2253 33.9219 30.0732 36.3978C29.4663 37.0959 30.5487 38.0461 31.1602 37.3426C33.4308 34.7304 35.2119 32.141 36.1753 30.0516C37.3843 27.4295 37.9973 24.6181 37.9973 21.6955C37.9972 14.0874 33.7046 7.19045 27.0215 3.98793ZM22.0197 1.44024H25.5812V4.35462C25.5739 4.4128 25.5745 4.47089 25.5812 4.52812V5.30623H22.0197V1.44024ZM10.0342 30.4608C10.0505 30.4007 10.0599 30.3377 10.0599 30.2724V21.0235H18.1943V34.447C14.9826 34.232 12.1043 32.7403 10.0342 30.4608ZM19.6637 34.4561V6.74638H21.2996H26.3014H27.9373V30.3952C27.9373 30.425 27.9396 30.4541 27.9432 30.4829C25.8445 32.7829 22.921 34.2762 19.6637 34.4561ZM31.2724 21.8413C31.2724 24.316 30.577 26.6264 29.3776 28.5775V15.0979C30.6079 17.1041 31.2724 19.442 31.2724 21.8413Z" fill="black"/>
<path d="M25.2145 10.6099H22.386C21.4573 10.6099 21.4573 12.0501 22.386 12.0501H25.2145C26.1431 12.0501 26.1431 10.6099 25.2145 10.6099Z" fill="black"/>
<path d="M25.2145 16.2107H22.386C21.4573 16.2107 21.4573 17.6509 22.386 17.6509H25.2145C26.1431 17.6509 26.1431 16.2107 25.2145 16.2107Z" fill="black"/>
<path d="M25.2145 21.8118H22.386C21.4573 21.8118 21.4573 23.252 22.386 23.252H25.2145C26.1431 23.252 26.1431 21.8118 25.2145 21.8118Z" fill="black"/>
<path d="M25.2145 27.4126H22.386C21.4573 27.4126 21.4573 28.8528 22.386 28.8528H25.2145C26.1431 28.8528 26.1431 27.4126 25.2145 27.4126Z" fill="black"/>
<path d="M12.4955 23.2476C12.0978 23.2476 11.7754 23.5699 11.7754 23.9677V25.4443C11.7754 25.8421 12.0978 26.1644 12.4955 26.1644C12.8932 26.1644 13.2156 25.8421 13.2156 25.4443V23.9677C13.2156 23.57 12.8932 23.2476 12.4955 23.2476Z" fill="black"/>
<path d="M12.4955 28.4451C12.0978 28.4451 11.7754 28.7674 11.7754 29.1652V30.6419C11.7754 31.0397 12.0978 31.362 12.4955 31.362C12.8932 31.362 13.2156 31.0397 13.2156 30.6419V29.1652C13.2156 28.7674 12.8932 28.4451 12.4955 28.4451Z" fill="black"/>
<path d="M15.6635 23.2476C15.2658 23.2476 14.9434 23.5699 14.9434 23.9677V25.4443C14.9434 25.8421 15.2658 26.1644 15.6635 26.1644C16.0612 26.1644 16.3836 25.8421 16.3836 25.4443V23.9677C16.3836 23.57 16.0612 23.2476 15.6635 23.2476Z" fill="black"/>
<path d="M15.6635 28.4451C15.2658 28.4451 14.9434 28.7674 14.9434 29.1652V30.6419C14.9434 31.0397 15.2658 31.362 15.6635 31.362C16.0612 31.362 16.3836 31.0397 16.3836 30.6419V29.1652C16.3836 28.7674 16.0612 28.4451 15.6635 28.4451Z" fill="black"/>
</svg>
