<svg width="257" height="77" viewBox="0 0 257 77" fill="none" xmlns="http://www.w3.org/2000/svg">
<path fill-rule="evenodd" clip-rule="evenodd" d="M0.59375 0.329414V31.7279H43.0243V39.5965H0.59375V51.3867H55.7646V19.9499H13.3338V12.1197H55.7646V0.329414H0.59375ZM158.351 43.5596H156.445V42.4361H161.559V43.5596H159.654V48.6012H158.351V43.5596ZM165.082 48.7091C164.094 48.7091 163.326 48.444 162.781 47.9139C162.236 47.3836 161.964 46.5851 161.964 45.5189C161.964 44.4522 162.236 43.654 162.781 43.1238C163.326 42.5935 164.094 42.3284 165.082 42.3284C166.076 42.3284 166.847 42.5935 167.392 43.1238C167.937 43.654 168.209 44.4522 168.209 45.5189C168.209 46.5851 167.937 47.3836 167.392 47.9139C166.847 48.444 166.076 48.7091 165.082 48.7091ZM165.082 47.6038C165.669 47.6038 166.114 47.4344 166.417 47.0961C166.719 46.7574 166.871 46.2766 166.871 45.6535V45.384C166.871 44.7608 166.719 44.2801 166.417 43.9415C166.114 43.6031 165.669 43.4339 165.082 43.4339C164.495 43.4339 164.052 43.6031 163.752 43.9415C163.452 44.2801 163.302 44.7608 163.302 45.384V45.6535C163.302 46.2766 163.452 46.7574 163.752 47.0961C164.052 47.4344 164.495 47.6038 165.082 47.6038ZM168.614 42.4361H170.025L171.184 45.8153C171.256 46.0311 171.334 46.2722 171.418 46.5388C171.502 46.8054 171.558 46.9895 171.589 47.0916H171.633C171.664 46.9895 171.723 46.7829 171.813 46.4714C171.903 46.1598 171.972 45.9411 172.02 45.8153L173.17 42.4361H174.527L172.299 48.6012H170.843L168.614 42.4361ZM6.1086 48.7091C5.27599 48.7091 4.62885 48.5054 4.16762 48.0981C3.70618 47.6906 3.47547 47.0945 3.47547 46.3096V42.4361H4.77865V46.2467C4.77865 46.6901 4.89411 47.027 5.12463 47.2577C5.35535 47.4884 5.68329 47.6038 6.1086 47.6038C6.53417 47.6038 6.8652 47.4884 7.1019 47.2577C7.33845 47.027 7.45683 46.6901 7.45683 46.2467V42.4361H8.7598V46.3096C8.7598 47.0945 8.52776 47.6906 8.0634 48.0981C7.59904 48.5054 6.94746 48.7091 6.1086 48.7091ZM9.96406 42.4361H11.2672V45.411L14.116 42.4361H15.6978L13.2893 44.9436L15.7339 48.6012H14.188L12.4175 45.8602L11.2672 46.8129V48.6012H9.96406V42.4361ZM16.4526 42.4361H19.724C20.413 42.4361 20.9311 42.6055 21.2786 42.9439C21.6262 43.2825 21.7998 43.7574 21.7998 44.3684C21.7998 45.2311 21.4405 45.8065 20.7213 46.0938L21.9795 48.6012H20.5686L19.4812 46.3007H17.7556V48.6012H16.4526V42.4361ZM19.607 45.2132C19.8887 45.2132 20.1045 45.1383 20.2541 44.9886C20.4039 44.8387 20.4788 44.6321 20.4788 44.3684C20.4788 44.1049 20.4039 43.9011 20.2541 43.7574C20.1045 43.6136 19.8887 43.5418 19.607 43.5418H17.7556V45.2132H19.607ZM24.7655 42.4361H26.4011L28.8098 48.6012H27.3898L26.9493 47.424H24.1454L23.7051 48.6012H22.3571L24.7655 42.4361ZM26.536 46.3365L25.9517 44.7728C25.9038 44.647 25.8349 44.4375 25.7451 44.1439C25.6552 43.8503 25.5953 43.6555 25.5654 43.5596H25.5204C25.4905 43.6555 25.4305 43.8503 25.3407 44.1439C25.2509 44.4375 25.1818 44.647 25.134 44.7728L24.5498 46.3365H26.536ZM29.4298 42.4361H30.7327V48.6012H29.4298V42.4361ZM31.928 42.4361H33.1954L35.5677 45.7884C35.6158 45.8542 35.6816 45.9592 35.7656 46.1029C35.8494 46.2467 35.9034 46.3426 35.9273 46.3905L35.9723 46.3635C35.9723 46.3156 35.9678 46.2378 35.9589 46.1299C35.9498 46.022 35.9453 45.9262 35.9453 45.8423V42.4361H37.2124V48.6012H35.9453L33.5638 45.2222C33.4918 45.1203 33.42 45.0051 33.3481 44.8762C33.2762 44.7475 33.2312 44.6651 33.2132 44.629L33.1684 44.6559C33.1684 44.6981 33.1728 44.7728 33.1817 44.8807C33.1907 44.9886 33.1954 45.0933 33.1954 45.1952V48.6012H31.928V42.4361ZM38.4166 42.4361H43.2607V43.5418H39.7198V44.8987H42.8652V46.004H39.7198V47.4959H43.3146V48.6012H38.4166V42.4361ZM61.351 0.329414V12.1197H82.5934V51.3867H95.3196V12.1197H116.521V0.329414H61.351ZM122.108 0.329414V51.3867H177.278V39.5965H134.848V31.7279H177.278V19.9499H134.848V12.1197H177.278V0.329414H122.108Z" fill="white"/>
<path fill-rule="evenodd" clip-rule="evenodd" d="M224.005 0.329323L211.947 15.8139L199.847 0.329323H184.164L204.085 25.8641L184.164 51.3866H199.847L211.947 35.9017L241.276 73.6968H257L219.809 25.8641L239.73 0.329323H224.005Z" fill="#F79122"/>
<path d="M7.80068 64.0015L7.25804 65.8279H4.65073L4.39926 67.6544H6.70217L6.4507 69.4279H4.14779L3.88309 71.3734H6.70217L6.43746 73.2131H1.05078L2.34782 64.0015H7.80068Z" fill="#F79122"/>
<path d="M13.969 67.6808C13.6955 67.7602 13.4926 67.8705 13.3602 68.0117C13.2279 68.144 13.069 68.369 12.8838 68.6866L12.3676 69.6396L13.347 73.213H10.8985L10.2367 70.2881H9.86616L9.45587 73.213H6.99414L7.97354 66.1455H10.4353L10.0647 68.8719H10.4353L11.2426 67.3896C11.4808 66.9484 11.75 66.622 12.0499 66.4102C12.3588 66.1896 12.8132 66.0176 13.4132 65.894L13.969 67.6808Z" fill="#F79122"/>
<path d="M17.66 65.894C18.5688 65.894 19.31 66.2073 19.8835 66.8337L18.7188 68.1969C18.3835 67.9146 18.0526 67.7734 17.7262 67.7734C17.2409 67.7734 16.8924 68.047 16.6806 68.594C16.4777 69.1411 16.3762 69.7763 16.3762 70.4999C16.3762 70.8969 16.4424 71.1704 16.5747 71.3204C16.7071 71.4704 16.8968 71.5454 17.1438 71.5454C17.3027 71.5454 17.4615 71.5145 17.6203 71.4528C17.7879 71.3822 17.9909 71.2763 18.2291 71.1351L19.0894 72.6307C18.3835 73.1954 17.5938 73.4778 16.7203 73.4778C15.8115 73.4778 15.0968 73.2086 14.5762 72.6704C14.0645 72.1234 13.8086 71.3822 13.8086 70.4469C13.8086 69.6528 13.9542 68.9116 14.2454 68.2234C14.5453 67.5264 14.9821 66.9661 15.5556 66.5426C16.138 66.1102 16.8394 65.894 17.66 65.894Z" fill="#F79122"/>
<path d="M22.7423 73.213L23.4703 67.972H22.5041L21.7762 73.213H19.3145L20.2938 66.1455H26.1835L25.2041 73.213H22.7423Z" fill="#F79122"/>
<path d="M27.0846 66.1455H29.2816V66.8337C29.8198 66.2073 30.4507 65.894 31.1742 65.894C31.7918 65.894 32.2595 66.1102 32.5771 66.5426C32.9036 66.9749 33.0668 67.597 33.0668 68.4087C33.0668 69.3175 32.9433 70.1557 32.6962 70.9234C32.458 71.691 32.0786 72.3087 31.558 72.7763C31.0374 73.2439 30.3757 73.4778 29.5728 73.4778C29.1845 73.4778 28.836 73.4292 28.5272 73.3322L28.1566 75.9527L25.6816 76.2174L27.0846 66.1455ZM29.3081 71.691C29.5992 71.691 29.8375 71.519 30.0228 71.1748C30.2169 70.8307 30.3536 70.416 30.433 69.9307C30.5213 69.4366 30.5654 68.969 30.5654 68.5278C30.5654 68.2014 30.5257 67.9808 30.4463 67.8661C30.3669 67.7514 30.2522 67.694 30.1022 67.694C29.811 67.694 29.5286 67.897 29.2551 68.3028L28.7919 71.5719C28.9684 71.6513 29.1404 71.691 29.3081 71.691Z" fill="#F79122"/>
<path d="M37.3279 65.894C38.1221 65.894 38.7441 66.0793 39.1941 66.4499C39.6529 66.8117 39.8823 67.2837 39.8823 67.8661C39.8823 68.7572 39.4897 69.419 38.7044 69.8513C37.9191 70.2837 36.9441 70.5616 35.7794 70.6851C35.7794 71.3469 36.0838 71.6778 36.6927 71.6778C36.9397 71.6778 37.1824 71.6292 37.4206 71.5322C37.6588 71.4263 37.9412 71.2675 38.2676 71.0557L39.1015 72.4719C38.2632 73.1425 37.3368 73.4778 36.3221 73.4778C35.3692 73.4778 34.6368 73.2307 34.1251 72.7366C33.6133 72.2425 33.3574 71.5322 33.3574 70.6057C33.3574 69.7763 33.4986 69.0043 33.7809 68.2896C34.0633 67.5749 34.5001 66.997 35.0912 66.5558C35.6912 66.1146 36.4368 65.894 37.3279 65.894ZM35.9118 69.2558C36.4853 69.2116 36.8868 69.0572 37.1162 68.7925C37.3544 68.519 37.4735 68.2322 37.4735 67.9322C37.4735 67.6411 37.3324 67.4955 37.05 67.4955C36.7677 67.4955 36.5294 67.6631 36.3353 67.9984C36.15 68.3249 36.0088 68.744 35.9118 69.2558Z" fill="#F79122"/>
<path d="M43.7206 65.894C44.6294 65.894 45.3705 66.2073 45.944 66.8337L44.7794 68.1969C44.4441 67.9146 44.1132 67.7734 43.7867 67.7734C43.3014 67.7734 42.9529 68.047 42.7412 68.594C42.5382 69.1411 42.4367 69.7763 42.4367 70.4999C42.4367 70.8969 42.5029 71.1704 42.6353 71.3204C42.7676 71.4704 42.9573 71.5454 43.2044 71.5454C43.3632 71.5454 43.522 71.5145 43.6808 71.4528C43.8485 71.3822 44.0514 71.2763 44.2897 71.1351L45.1499 72.6307C44.4441 73.1954 43.6544 73.4778 42.7809 73.4778C41.872 73.4778 41.1574 73.2086 40.6368 72.6704C40.125 72.1234 39.8691 71.3822 39.8691 70.4469C39.8691 69.6528 40.0147 68.9116 40.3059 68.2234C40.6059 67.5264 41.0426 66.9661 41.6162 66.5426C42.1985 66.1102 42.9 65.894 43.7206 65.894Z" fill="#F79122"/>
<path d="M53.2244 65.894C54.0185 65.894 54.6406 66.0793 55.0906 66.4499C55.5494 66.8117 55.7788 67.2837 55.7788 67.8661C55.7788 68.7572 55.3862 69.419 54.6009 69.8513C53.8156 70.2837 52.8406 70.5616 51.6759 70.6851C51.6759 71.3469 51.9803 71.6778 52.5891 71.6778C52.8362 71.6778 53.0788 71.6292 53.3171 71.5322C53.5553 71.4263 53.8377 71.2675 54.1641 71.0557L54.9979 72.4719C54.1597 73.1425 53.2333 73.4778 52.2186 73.4778C51.2656 73.4778 50.5333 73.2307 50.0215 72.7366C49.5098 72.2425 49.2539 71.5322 49.2539 70.6057C49.2539 69.7763 49.3951 69.0043 49.6774 68.2896C49.9598 67.5749 50.3965 66.997 50.9877 66.5558C51.5877 66.1146 52.3333 65.894 53.2244 65.894ZM51.8083 69.2558C52.3818 69.2116 52.7833 69.0572 53.0127 68.7925C53.2509 68.519 53.37 68.2322 53.37 67.9322C53.37 67.6411 53.2288 67.4955 52.9465 67.4955C52.6641 67.4955 52.4259 67.6631 52.2318 67.9984C52.0465 68.3249 51.9053 68.744 51.8083 69.2558Z" fill="white"/>
<path d="M62.6604 67.6808C62.3869 67.7602 62.184 67.8705 62.0516 68.0117C61.9193 68.144 61.7605 68.369 61.5752 68.6866L61.059 69.6396L62.0384 73.213H59.5899L58.9281 70.2881H58.5576L58.1473 73.213H55.6855L56.6649 66.1455H59.1267L58.7561 68.8719H59.1267L59.934 67.3896C60.1722 66.9484 60.4414 66.622 60.7414 66.4102C61.0502 66.1896 61.5046 66.0176 62.1046 65.894L62.6604 67.6808Z" fill="white"/>
<path d="M66.3534 65.894C67.2622 65.894 68.0033 66.2073 68.5769 66.8337L67.4122 68.1969C67.0769 67.9146 66.746 67.7734 66.4195 67.7734C65.9343 67.7734 65.5857 68.047 65.374 68.594C65.171 69.1411 65.0696 69.7763 65.0696 70.4999C65.0696 70.8969 65.1357 71.1704 65.2681 71.3204C65.4004 71.4704 65.5901 71.5454 65.8372 71.5454C65.996 71.5454 66.1548 71.5145 66.3137 71.4528C66.4813 71.3822 66.6842 71.2763 66.9225 71.1351L67.7828 72.6307C67.0769 73.1954 66.2872 73.4778 65.4137 73.4778C64.5049 73.4778 63.7902 73.2086 63.2696 72.6704C62.7578 72.1234 62.502 71.3822 62.502 70.4469C62.502 69.6528 62.6475 68.9116 62.9387 68.2234C63.2387 67.5264 63.6755 66.9661 64.249 66.5426C64.8313 66.1102 65.5328 65.894 66.3534 65.894Z" fill="white"/>
<path d="M71.4357 73.213L72.1636 67.972H71.1975L70.4695 73.213H68.0078L68.9872 66.1455H74.8768L73.8974 73.213H71.4357Z" fill="white"/>
<path d="M78.9666 65.894C79.7607 65.894 80.3828 66.0793 80.8328 66.4499C81.2916 66.8117 81.521 67.2837 81.521 67.8661C81.521 68.7572 81.1284 69.419 80.3431 69.8513C79.5578 70.2837 78.5828 70.5616 77.4181 70.6851C77.4181 71.3469 77.7225 71.6778 78.3313 71.6778C78.5784 71.6778 78.821 71.6292 79.0593 71.5322C79.2975 71.4263 79.5798 71.2675 79.9063 71.0557L80.7401 72.4719C79.9019 73.1425 78.9754 73.4778 77.9608 73.4778C77.0078 73.4778 76.2755 73.2307 75.7637 72.7366C75.252 72.2425 74.9961 71.5322 74.9961 70.6057C74.9961 69.7763 75.1373 69.0043 75.4196 68.2896C75.702 67.5749 76.1387 66.997 76.7299 66.5558C77.3299 66.1146 78.0755 65.894 78.9666 65.894ZM77.5505 69.2558C78.124 69.2116 78.5255 69.0572 78.7549 68.7925C78.9931 68.519 79.1122 68.2322 79.1122 67.9322C79.1122 67.6411 78.971 67.4955 78.6887 67.4955C78.4063 67.4955 78.1681 67.6631 77.974 67.9984C77.7887 68.3249 77.6475 68.744 77.5505 69.2558Z" fill="white"/>
<path d="M84.4187 73.4645C83.8628 73.4645 83.3599 73.3498 82.9099 73.1204C82.4687 72.8822 82.1202 72.5469 81.8643 72.1146C81.6084 71.6734 81.4805 71.1572 81.4805 70.5661C81.4805 69.8867 81.5952 69.2425 81.8246 68.6337C82.054 68.0249 82.3937 67.5352 82.8437 67.1646C83.3025 66.7852 83.8451 66.5955 84.4716 66.5955C85.001 66.5955 85.4642 66.8029 85.8613 67.2176V67.1514C85.8525 66.5249 85.7598 66.0529 85.5834 65.7352C85.4157 65.4176 85.1334 65.1926 84.7363 65.0603C84.3393 64.9191 83.7437 64.8176 82.9496 64.7558L83.479 63.1279C84.7231 63.1897 85.6892 63.3926 86.3775 63.7367C87.0657 64.072 87.5466 64.5441 87.8201 65.1529C88.0936 65.7617 88.2304 66.5514 88.2304 67.522C88.2304 69.4102 87.9215 70.8749 87.3039 71.916C86.6951 72.9484 85.7333 73.4645 84.4187 73.4645ZM84.5775 71.6778C84.9304 71.6778 85.1907 71.4131 85.3584 70.8837C85.5348 70.3455 85.6495 69.6219 85.7025 68.7131C85.4731 68.4396 85.2436 68.3029 85.0142 68.3029C84.6525 68.3029 84.3922 68.5455 84.2334 69.0308C84.0745 69.5072 83.9951 70.0455 83.9951 70.6455C83.9951 70.9896 84.0437 71.2499 84.1407 71.4263C84.2466 71.594 84.3922 71.6778 84.5775 71.6778Z" fill="white"/>
<path d="M89.9526 73.4777C89.4673 73.4777 89.0967 73.3322 88.8409 73.041C88.585 72.7498 88.457 72.3484 88.457 71.8366C88.457 71.669 88.4703 71.4925 88.4967 71.3072L89.2114 66.1455H91.6732L91.0246 70.8572C91.0158 70.9101 91.0114 70.9763 91.0114 71.0557C91.0114 71.2587 91.082 71.3601 91.2232 71.3601C91.4349 71.3601 91.6732 71.1219 91.9379 70.6454L92.5599 66.1455H95.0216L94.0422 73.213H91.8982L91.9246 72.3131C91.3423 73.0895 90.6849 73.4777 89.9526 73.4777Z" fill="white"/>
<path d="M103.266 65.894C103.716 65.894 104.065 66.0396 104.312 66.3308C104.568 66.6131 104.696 67.0102 104.696 67.522C104.696 67.672 104.682 67.8352 104.656 68.0117L103.928 73.213H101.466L102.115 68.5675L102.141 68.3028C102.141 68.1087 102.088 68.0117 101.982 68.0117C101.877 68.0117 101.762 68.1131 101.638 68.3161C101.524 68.5102 101.382 68.8322 101.215 69.2822L100.659 73.213H98.1972L98.8458 68.5675L98.8722 68.3028C98.8722 68.1087 98.8149 68.0117 98.7002 68.0117C98.4972 68.0117 98.2458 68.4617 97.9458 69.3616L97.4031 73.213H94.9414L95.9208 66.1455H98.0649L98.0781 67.1646C98.3252 66.7676 98.6119 66.4587 98.9384 66.2382C99.2649 66.0087 99.6178 65.894 99.9972 65.894C100.377 65.894 100.685 65.9955 100.924 66.1985C101.171 66.4014 101.33 66.6926 101.4 67.072C101.638 66.7102 101.916 66.4234 102.234 66.2117C102.56 65.9999 102.905 65.894 103.266 65.894Z" fill="white"/>
<path d="M107.819 73.4778C106.927 73.4778 106.23 73.2263 105.727 72.7234C105.233 72.2204 104.986 71.4925 104.986 70.5396C104.986 69.719 105.119 68.9558 105.383 68.2499C105.657 67.544 106.08 66.9749 106.654 66.5426C107.227 66.1102 107.942 65.894 108.798 65.894C109.689 65.894 110.386 66.1499 110.889 66.6617C111.392 67.1646 111.644 67.8881 111.644 68.8322C111.635 69.6616 111.494 70.4293 111.22 71.1351C110.955 71.8322 110.536 72.3969 109.963 72.8292C109.389 73.2616 108.675 73.4778 107.819 73.4778ZM108.004 71.6645C108.419 71.6645 108.71 71.3248 108.877 70.6454C109.054 69.9572 109.142 69.2381 109.142 68.4881C109.142 68.2058 109.098 68.0028 109.01 67.8793C108.93 67.7558 108.798 67.694 108.613 67.694C108.207 67.694 107.916 68.0293 107.739 68.6999C107.563 69.3616 107.475 70.0631 107.475 70.8043C107.475 71.1131 107.514 71.3337 107.594 71.466C107.682 71.5984 107.819 71.6645 108.004 71.6645Z" fill="white"/>
<path d="M112.756 66.1455H114.953V66.8337C115.492 66.2073 116.123 65.894 116.846 65.894C117.464 65.894 117.931 66.1102 118.249 66.5426C118.575 66.9749 118.739 67.597 118.739 68.4087C118.739 69.3175 118.615 70.1557 118.368 70.9234C118.13 71.691 117.75 72.3087 117.23 72.7763C116.709 73.2439 116.048 73.4778 115.245 73.4778C114.856 73.4778 114.508 73.4292 114.199 73.3322L113.828 75.9527L111.354 76.2174L112.756 66.1455ZM114.98 71.691C115.271 71.691 115.509 71.519 115.695 71.1748C115.889 70.8307 116.025 70.416 116.105 69.9307C116.193 69.4366 116.237 68.969 116.237 68.5278C116.237 68.2014 116.198 67.9808 116.118 67.8661C116.039 67.7514 115.924 67.694 115.774 67.694C115.483 67.694 115.201 67.897 114.927 68.3028L114.464 71.5719C114.64 71.6513 114.812 71.691 114.98 71.691Z" fill="white"/>
<path d="M122.894 65.894C123.803 65.894 124.544 66.2073 125.118 66.8337L123.953 68.1969C123.618 67.9146 123.287 67.7734 122.961 67.7734C122.475 67.7734 122.127 68.047 121.915 68.594C121.712 69.1411 121.611 69.7763 121.611 70.4999C121.611 70.8969 121.677 71.1704 121.809 71.3204C121.941 71.4704 122.131 71.5454 122.378 71.5454C122.537 71.5454 122.696 71.5145 122.855 71.4528C123.022 71.3822 123.225 71.2763 123.463 71.1351L124.324 72.6307C123.618 73.1954 122.828 73.4778 121.955 73.4778C121.046 73.4778 120.331 73.2086 119.811 72.6704C119.299 72.1234 119.043 71.3822 119.043 70.4469C119.043 69.6528 119.189 68.9116 119.48 68.2234C119.78 67.5264 120.216 66.9661 120.79 66.5426C121.372 66.1102 122.074 65.894 122.894 65.894Z" fill="white"/>
<path d="M127.778 68.3161C128.739 68.3161 129.458 68.5014 129.935 68.8719C130.42 69.2337 130.663 69.7896 130.663 70.5396C130.663 71.0337 130.553 71.5013 130.332 71.9425C130.12 72.3836 129.758 72.7498 129.247 73.041C128.744 73.3233 128.082 73.4645 127.261 73.4645C126.785 73.4645 126.335 73.4248 125.911 73.3454C125.488 73.266 125.047 73.1425 124.588 72.9748L125.528 66.1455H127.989L127.698 68.3161H127.778ZM127.447 71.8895C127.711 71.8895 127.905 71.7616 128.029 71.5057C128.161 71.241 128.228 70.919 128.228 70.5396C128.228 70.3013 128.179 70.1293 128.082 70.0234C127.994 69.9087 127.839 69.8513 127.619 69.8513H127.486L127.208 71.8631C127.27 71.8807 127.35 71.8895 127.447 71.8895Z" fill="white"/>
<path d="M137.783 67.6808C137.51 67.7602 137.307 67.8705 137.175 68.0117C137.042 68.144 136.883 68.369 136.698 68.6866L136.182 69.6396L137.161 73.213H134.713L134.051 70.2881H133.681L133.27 73.213H130.809L131.788 66.1455H134.25L133.879 68.8719H134.25L135.057 67.3896C135.295 66.9484 135.564 66.622 135.864 66.4102C136.173 66.1896 136.628 66.0176 137.228 65.894L137.783 67.6808Z" fill="white"/>
<path d="M141.581 65.894C142.057 65.894 142.534 65.9602 143.01 66.0926C143.496 66.2161 143.954 66.4014 144.387 66.6484L143.765 70.9896C143.747 71.166 143.738 71.2851 143.738 71.3469C143.738 71.4704 143.756 71.5675 143.791 71.6381C143.835 71.7087 143.91 71.766 144.016 71.8101L143.275 73.4248C142.869 73.3895 142.507 73.2836 142.19 73.1072C141.872 72.9307 141.652 72.6836 141.528 72.366C141.281 72.7278 141.003 73.0057 140.694 73.1998C140.394 73.3851 140.037 73.4778 139.622 73.4778C138.96 73.4778 138.453 73.2395 138.1 72.7631C137.756 72.2866 137.584 71.6293 137.584 70.791C137.584 69.9528 137.716 69.1631 137.981 68.4219C138.255 67.6808 138.687 67.0764 139.278 66.6087C139.878 66.1323 140.646 65.894 141.581 65.894H141.581ZM141.396 67.6278C140.963 67.6278 140.637 67.9543 140.416 68.6072C140.196 69.2513 140.085 69.9925 140.085 70.8307C140.085 71.1484 140.121 71.369 140.191 71.4925C140.271 71.6072 140.377 71.6645 140.509 71.6645C140.782 71.6645 141.056 71.4263 141.33 70.9498L141.806 67.6808C141.674 67.6455 141.537 67.6278 141.396 67.6278Z" fill="white"/>
<path d="M154.989 67.6808C154.715 67.7602 154.512 67.8705 154.38 68.0117C154.247 68.144 154.089 68.369 153.903 68.6866L153.387 69.6396L154.367 73.213H151.918L151.256 70.2881H150.886L150.475 73.213H148.014L148.993 66.1455H151.455L151.084 68.8719H151.455L152.262 67.3896C152.5 66.9484 152.769 66.622 153.069 66.4102C153.378 66.1896 153.833 66.0176 154.433 65.894L154.989 67.6808Z" fill="white"/>
<path d="M157.662 73.4778C156.771 73.4778 156.074 73.2263 155.571 72.7234C155.077 72.2204 154.83 71.4925 154.83 70.5396C154.83 69.719 154.962 68.9558 155.227 68.2499C155.501 67.544 155.924 66.9749 156.498 66.5426C157.071 66.1102 157.786 65.894 158.642 65.894C159.533 65.894 160.23 66.1499 160.733 66.6617C161.236 67.1646 161.487 67.8881 161.487 68.8322C161.479 69.6616 161.337 70.4293 161.064 71.1351C160.799 71.8322 160.38 72.3969 159.806 72.8292C159.233 73.2616 158.518 73.4778 157.662 73.4778ZM157.848 71.6645C158.262 71.6645 158.554 71.3248 158.721 70.6454C158.898 69.9572 158.986 69.2381 158.986 68.4881C158.986 68.2058 158.942 68.0028 158.854 67.8793C158.774 67.7558 158.642 67.694 158.456 67.694C158.051 67.694 157.759 68.0293 157.583 68.6999C157.407 69.3616 157.318 70.0631 157.318 70.8043C157.318 71.1131 157.358 71.3337 157.437 71.466C157.526 71.5984 157.662 71.6645 157.848 71.6645Z" fill="white"/>
<path d="M169.072 73.213H166.795L167.047 71.069C167.109 70.5131 167.175 70.0366 167.245 69.6396C167.316 69.2425 167.426 68.7087 167.576 68.0381L166.239 72.5248H164.307L164.162 68.0381C164.117 69.044 164.02 70.0631 163.87 71.0954L163.566 73.213H161.303L162.812 66.1455H165.551L165.564 70.4469L166.676 66.1455H169.508L169.072 73.213Z" fill="white"/>
<path d="M173.094 73.213L173.822 67.972H172.856L172.128 73.213H169.666L170.645 66.1455H176.535L175.556 73.213H173.094Z" fill="white"/>
<path d="M180.626 65.894C181.102 65.894 181.579 65.9602 182.055 66.0926C182.541 66.2161 182.999 66.4014 183.432 66.6484L182.81 70.9896C182.792 71.166 182.783 71.2851 182.783 71.3469C182.783 71.4704 182.801 71.5675 182.836 71.6381C182.88 71.7087 182.955 71.766 183.061 71.8101L182.32 73.4248C181.914 73.3895 181.552 73.2836 181.235 73.1072C180.917 72.9307 180.696 72.6836 180.573 72.366C180.326 72.7278 180.048 73.0057 179.739 73.1998C179.439 73.3851 179.082 73.4778 178.667 73.4778C178.005 73.4778 177.498 73.2395 177.145 72.7631C176.801 72.2866 176.629 71.6293 176.629 70.791C176.629 69.9528 176.761 69.1631 177.026 68.4219C177.299 67.6808 177.732 67.0764 178.323 66.6087C178.923 66.1323 179.691 65.894 180.626 65.894ZM180.441 67.6278C180.008 67.6278 179.682 67.9543 179.461 68.6072C179.241 69.2513 179.13 69.9925 179.13 70.8307C179.13 71.1484 179.166 71.369 179.236 71.4925C179.316 71.6072 179.422 71.6645 179.554 71.6645C179.827 71.6645 180.101 71.4263 180.374 70.9498L180.851 67.6808C180.719 67.6455 180.582 67.6278 180.441 67.6278Z" fill="white"/>
<path d="M186.86 73.213L187.23 70.5528H186.211L185.841 73.213H183.379L184.358 66.1455H186.82L186.463 68.7396H187.482L187.839 66.1455H190.301L189.321 73.213H186.86Z" fill="white"/>
<path d="M193.662 66.1454L192.682 73.2129H190.221L191.2 66.1454H193.662ZM192.629 65.0071C192.25 65.0071 191.95 64.9013 191.73 64.6895C191.509 64.4689 191.399 64.1822 191.399 63.8292C191.399 63.388 191.549 63.0219 191.849 62.7307C192.149 62.4395 192.515 62.2939 192.947 62.2939C193.327 62.2939 193.627 62.4042 193.847 62.6248C194.068 62.8366 194.178 63.1189 194.178 63.4719C194.178 63.913 194.028 64.2792 193.728 64.5704C193.437 64.8616 193.071 65.0071 192.629 65.0071Z" fill="white"/>
<path d="M197.58 65.894C198.532 65.894 199.463 65.9999 200.372 66.2117L199.393 73.213H196.931L197.262 70.8704H196.931L195.647 73.213H192.947L194.84 70.3013C194.346 69.8337 194.099 69.2778 194.099 68.6337C194.099 68.1749 194.209 67.7381 194.43 67.3234C194.65 66.9087 195.021 66.569 195.541 66.3043C196.062 66.0308 196.741 65.894 197.58 65.894ZM197.487 67.469C197.222 67.469 197.015 67.5837 196.865 67.8131C196.715 68.0425 196.64 68.3337 196.64 68.6866C196.64 69.2161 196.825 69.4808 197.196 69.4808H197.46L197.738 67.4955C197.65 67.4778 197.566 67.469 197.487 67.469V67.469Z" fill="white"/>
</svg>
